<svg width="164" height="50" viewBox="0 0 164 50" fill="none" xmlns="http://www.w3.org/2000/svg">
<path d="M63.5915 42.2603C60.8446 52.8704 41.3614 49.7836 23.8699 39.4851C6.93538 29.5169 -2.54193 14.3193 2.23448 6.19181C7.02033 -1.93564 23.7283 0.131618 40.8705 9.74108C52.9626 16.5281 66.6972 30.2532 63.5915 42.2603Z" stroke="#0B489D" stroke-width="0.377582"/>
<path d="M58.5225 39.2491C56.3137 47.4237 39.7945 45.6208 25.3142 37.0968C11.287 28.8372 3.46165 16.2166 7.4357 9.45785C11.4098 2.69914 25.6351 3.75636 39.4546 12.3369C48.9603 18.2366 61.2128 29.2809 58.5225 39.2491Z" stroke="#0B489D" stroke-width="0.377582"/>
<path d="M53.2363 36.3324C51.4617 42.874 38.2747 41.4675 26.7395 34.671C15.5631 28.0916 9.569 17.34 12.5141 12.5919C15.8274 7.24911 27.4664 8.35354 38.0576 14.8385C45.6658 19.5016 55.398 28.3559 53.2363 36.3324Z" stroke="#0B489D" stroke-width="0.377582"/>
<path d="M39.0959 28.4879C38.5107 30.6023 34.3195 30.1775 30.657 28.0253C27.1171 25.9392 25.2387 22.5032 26.1921 20.9646C27.2587 19.2371 30.9685 19.5581 34.329 21.6159C36.736 23.0884 39.8133 25.9109 39.0959 28.4879Z" stroke="#0B489D" stroke-width="0.377582"/>
<path d="M8.09644 1.89673L27.4853 20.0207" stroke="#0B489D" stroke-width="0.377582"/>
<path d="M14.0623 1L28.5142 19.8602" stroke="#0B489D" stroke-width="0.377582"/>
<path d="M21.4156 1.89673L30.0812 19.9546" stroke="#0B489D" stroke-width="0.377582"/>
<path d="M29.2693 4.26636L32.0351 20.5213" stroke="#0B489D" stroke-width="0.377582"/>
<path d="M37.4157 7.87207L33.8287 21.3423" stroke="#0B489D" stroke-width="0.377582"/>
<path d="M45.3638 12.6013L35.8298 22.6356" stroke="#0B489D" stroke-width="0.377582"/>
<path d="M52.6417 18.4065L36.9059 23.6171" stroke="#0B489D" stroke-width="0.377582"/>
<path d="M58.683 24.9387H38.1142" stroke="#0B489D" stroke-width="0.377582"/>
<path d="M62.119 30.8291L38.8033 26.0999" stroke="#0B489D" stroke-width="0.377582"/>
<path d="M63.922 36.4644L39.1903 27.3552" stroke="#0B489D" stroke-width="0.377582"/>
<path d="M63.837 41.5335L39.0959 28.488" stroke="#0B489D" stroke-width="0.377582"/>
<path d="M61.7131 45.5359L38.7466 29.196" stroke="#0B489D" stroke-width="0.377582"/>
<path d="M57.3803 48.1506L37.8405 29.6963" stroke="#0B489D" stroke-width="0.377582"/>
<path d="M51.254 48.887L36.736 29.8757" stroke="#0B489D" stroke-width="0.377582"/>
<path d="M35.0936 29.7153L43.8157 47.8298" stroke="#0B489D" stroke-width="0.377582"/>
<path d="M33.3472 29.2715L35.7826 45.4131" stroke="#0B489D" stroke-width="0.377582"/>
<path d="M31.5537 28.5354L27.7968 41.6941" stroke="#0B489D" stroke-width="0.377582"/>
<path d="M29.8357 27.478L19.7826 36.9553" stroke="#0B489D" stroke-width="0.377582"/>
<path d="M28.3254 26.2131L12.6746 31.235" stroke="#0B489D" stroke-width="0.377582"/>
<path d="M27.0699 24.8066L6.79376 24.8633" stroke="#0B489D" stroke-width="0.377582"/>
<path d="M26.3242 23.4945L3.0274 18.8975" stroke="#0B489D" stroke-width="0.377582"/>
<path d="M25.9938 22.1634L1.07343 13.0071" stroke="#0B489D" stroke-width="0.377582"/>
<path d="M26.0788 21.1819L1.31885 8.02319" stroke="#0B489D" stroke-width="0.377582"/>
<path d="M26.4847 20.6155L3.76373 4.10571" stroke="#0B489D" stroke-width="0.377582"/>
<path d="M41.2387 22.4657H37.1608L36.2357 24.4008H32.5543L38.9732 12.7146H42.9378L45.241 24.4008H41.4652L41.2387 22.4657ZM40.88 20.1152L40.1814 16.8491L38.3407 20.1152H40.88Z" fill="#0B489D"/>
<path d="M48.29 12.7146H51.8959L50.4517 20.9648H56.2664L55.6623 24.4008H46.2416L48.29 12.7146Z" fill="#0B489D"/>
<path d="M59.1644 12.7146H62.7703L61.326 20.9648H67.1408L66.5367 24.4008H57.116L59.1644 12.7146Z" fill="#0B489D"/>
<path d="M70.067 12.7146H73.4275L76.6842 19.1712L77.8169 12.7146H81.2246L79.1668 24.4008H75.7591L72.5213 17.9819L71.398 24.4008H68.0092L70.067 12.7146Z" fill="#0B489D"/>
<path d="M82.8671 12.7146H92.5332L92.0329 15.5748H85.9727L85.7461 16.868H91.3721L90.8529 19.8131H85.227L84.9815 21.1819H91.2211L90.6547 24.3913H80.8187L82.8671 12.7146Z" fill="#0B489D"/>
<path d="M93.8547 12.7146H104.805L104.304 15.5937H100.632L99.0842 24.4008H95.4783L97.0264 15.5937H93.3544L93.8547 12.7146Z" fill="#0B489D"/>
<path d="M114.046 12.7146H124.996L124.495 15.5937H120.823L119.275 24.4008H115.669L117.218 15.5937H113.546L114.046 12.7146Z" fill="#0B489D"/>
<path d="M130.735 22.4657H126.667L125.742 24.4008H122.06L128.488 12.7146H132.453L134.756 24.4008H130.98L130.735 22.4657ZM130.386 20.1152L129.687 16.8491L127.847 20.1152H130.386Z" fill="#0B489D"/>
<path d="M137.758 12.7146H141.364L139.92 20.9648H145.734L145.13 24.4008H135.71L137.758 12.7146Z" fill="#0B489D"/>
<path d="M159.979 22.4657H155.91L154.985 24.4008H151.304L157.732 12.7146H161.697L164 24.4008H160.224L159.979 22.4657ZM159.62 20.1152L158.922 16.8491L157.081 20.1152H159.62Z" fill="#0B489D"/>
<path d="M106.013 20.9741L105.229 24.6461H101.321L102.105 20.9741H106.013Z" fill="#0B489D"/>
<path d="M148.33 12.7146H151.936L150.492 20.9648L149.888 24.4008H146.282L148.33 12.7146Z" fill="#0B489D"/>
<path d="M108.986 12.7146H112.592L111.148 20.9648L110.544 24.4008H106.938L108.986 12.7146Z" fill="#0B489D"/>
<path d="M95.6955 31.0745L94.9592 27.8179H95.9409L96.2429 29.3848C96.2618 29.4981 96.2807 29.6114 96.2996 29.7247C96.3185 29.8379 96.3279 29.9606 96.3468 30.0834C96.3845 29.9984 96.4412 29.8379 96.5356 29.6114C96.5639 29.5453 96.5828 29.4981 96.6017 29.4604L97.3096 27.8179H98.263L98.4896 29.3848C98.499 29.4698 98.5179 29.5642 98.5273 29.668C98.5368 29.7719 98.5556 29.9135 98.5651 30.0928C98.6028 29.9701 98.65 29.8379 98.6972 29.7058C98.7444 29.5736 98.8105 29.432 98.886 29.281L99.5751 27.8179H100.623L98.9143 31.0745H98.027L97.7722 29.2904C97.7533 29.1488 97.7344 29.0261 97.725 28.9317C97.7155 28.8373 97.7061 28.7429 97.7061 28.6674C97.6211 28.8751 97.555 29.0261 97.5173 29.1111C97.4795 29.196 97.4512 29.2527 97.4323 29.2999L96.6017 31.084H95.6955V31.0745Z" fill="#0B489D" stroke="#0B489D" stroke-width="0.188791"/>
<path d="M101.633 29.6586V29.7341C101.633 29.9512 101.699 30.1211 101.841 30.2533C101.982 30.3854 102.171 30.4421 102.407 30.4421C102.577 30.4421 102.718 30.4043 102.851 30.3382C102.983 30.2721 103.106 30.1494 103.228 29.989L103.861 30.5176C103.7 30.7536 103.493 30.9235 103.247 31.0462C103.002 31.1689 102.7 31.2255 102.369 31.2255C101.869 31.2255 101.463 31.0745 101.161 30.7819C100.859 30.4893 100.708 30.1022 100.708 29.6114C100.708 29.0639 100.878 28.6108 101.227 28.2615C101.576 27.9123 102.011 27.7329 102.539 27.7329C103.03 27.7329 103.408 27.8839 103.691 28.1766C103.974 28.4692 104.106 28.8845 104.106 29.4037C104.106 29.4603 104.106 29.5453 104.097 29.6586V29.6775H101.633V29.6586ZM101.68 29.1016H103.209C103.209 28.8751 103.153 28.7052 103.03 28.5825C102.917 28.4598 102.756 28.4031 102.539 28.4031C102.313 28.4031 102.133 28.4598 101.982 28.5825C101.859 28.6957 101.746 28.8751 101.68 29.1016Z" fill="#0B489D" stroke="#0B489D" stroke-width="0.188791"/>
<path d="M106.598 31.0745L107.023 27.8179H107.891L107.816 28.3276C107.986 28.1105 108.156 27.95 108.326 27.8556C108.495 27.7612 108.675 27.714 108.873 27.714C109.1 27.714 109.279 27.7707 109.43 27.8745C109.581 27.9783 109.694 28.1483 109.77 28.3559C109.959 28.1199 110.138 27.9595 110.308 27.8556C110.478 27.7612 110.657 27.7046 110.855 27.7046C111.139 27.7046 111.375 27.7895 111.535 27.9689C111.695 28.1483 111.79 28.3842 111.79 28.6863C111.79 28.7618 111.79 28.8373 111.78 28.9412C111.771 29.045 111.752 29.1772 111.733 29.3565L111.507 31.0651H110.582L110.818 29.2527C110.818 29.2244 110.827 29.196 110.827 29.1394C110.836 29.0356 110.846 28.9789 110.846 28.9601C110.846 28.7996 110.808 28.6769 110.742 28.6013C110.676 28.5258 110.563 28.4786 110.421 28.4786C110.213 28.4786 110.053 28.5541 109.949 28.7052C109.836 28.8562 109.76 29.1111 109.713 29.4603L109.505 31.0745H108.571L108.807 29.2621C108.816 29.196 108.826 29.1394 108.826 29.0828C108.826 29.0261 108.835 28.9978 108.835 28.9695C108.835 28.809 108.798 28.6863 108.731 28.6108C108.665 28.5353 108.562 28.4881 108.42 28.4881C108.212 28.4881 108.061 28.5636 107.948 28.7146C107.835 28.8657 107.759 29.1111 107.721 29.4698L107.514 31.0839H106.598V31.0745Z" fill="#0B489D" stroke="#0B489D" stroke-width="0.188791"/>
<path d="M115.585 31.0743H114.65L114.707 30.7156C114.593 30.8761 114.461 30.9988 114.291 31.0838C114.121 31.1687 113.933 31.2065 113.716 31.2065C113.3 31.2065 112.979 31.0743 112.743 30.8006C112.507 30.5269 112.394 30.1493 112.394 29.6584C112.394 29.092 112.545 28.6295 112.838 28.2614C113.13 27.8932 113.508 27.7139 113.961 27.7139C114.197 27.7139 114.395 27.7611 114.575 27.8555C114.754 27.9499 114.895 28.0914 115.018 28.2802L115.075 27.8271H116.009L115.585 31.0743ZM114.933 29.262C114.933 29.0071 114.867 28.8089 114.735 28.6673C114.603 28.5257 114.414 28.4502 114.188 28.4502C113.923 28.4502 113.706 28.554 113.555 28.7522C113.404 28.9504 113.319 29.2242 113.319 29.5735C113.319 29.8094 113.385 29.9982 113.527 30.1398C113.668 30.2814 113.857 30.3475 114.103 30.3475C114.348 30.3475 114.556 30.2437 114.707 30.0454C114.858 29.8472 114.933 29.6018 114.933 29.262Z" fill="#0B489D" stroke="#0B489D" stroke-width="0.188791"/>
<path d="M116.462 31.0745L117.142 25.9299H118.067L117.642 29.2055L119.087 27.8178H120.267L118.643 29.2621L119.898 31.0745H118.822L117.624 29.2999L117.397 31.0745H116.462Z" fill="#0B489D" stroke="#0B489D" stroke-width="0.188791"/>
<path d="M121.163 29.6586V29.7341C121.163 29.9512 121.229 30.1211 121.371 30.2533C121.513 30.3854 121.701 30.4421 121.937 30.4421C122.107 30.4421 122.249 30.4043 122.381 30.3382C122.513 30.2721 122.636 30.1494 122.759 29.989L123.391 30.5176C123.231 30.7536 123.023 30.9235 122.778 31.0462C122.532 31.1689 122.23 31.2255 121.9 31.2255C121.399 31.2255 120.993 31.0745 120.691 30.7819C120.389 30.4893 120.238 30.1022 120.238 29.6114C120.238 29.0639 120.408 28.6108 120.757 28.2615C121.107 27.9123 121.541 27.7329 122.07 27.7329C122.56 27.7329 122.938 27.8839 123.221 28.1766C123.504 28.4692 123.637 28.8845 123.637 29.4037C123.637 29.4603 123.637 29.5453 123.627 29.6586V29.6775H121.163V29.6586ZM121.22 29.1016H122.749C122.749 28.8751 122.693 28.7052 122.57 28.5825C122.457 28.4598 122.296 28.4031 122.079 28.4031C121.852 28.4031 121.673 28.4598 121.522 28.5825C121.39 28.6957 121.286 28.8751 121.22 29.1016Z" fill="#0B489D" stroke="#0B489D" stroke-width="0.188791"/>
<path d="M128.885 28.8749C128.743 28.7617 128.611 28.6767 128.479 28.6201C128.347 28.5634 128.215 28.5351 128.083 28.5351C127.78 28.5351 127.535 28.6295 127.356 28.8277C127.167 29.026 127.082 29.2808 127.082 29.6018C127.082 29.8472 127.157 30.036 127.299 30.1776C127.441 30.3192 127.648 30.3853 127.903 30.3853C128.045 30.3853 128.186 30.3664 128.328 30.3192C128.47 30.272 128.639 30.2059 128.819 30.121L128.658 31.0177C128.526 31.0838 128.385 31.131 128.234 31.1593C128.083 31.1876 127.932 31.2065 127.762 31.2065C127.261 31.2065 126.855 31.0649 126.563 30.7723C126.27 30.4797 126.119 30.0926 126.119 29.6018C126.119 29.0543 126.298 28.6012 126.648 28.2425C126.997 27.8838 127.45 27.7139 127.988 27.7139C128.205 27.7139 128.403 27.7422 128.583 27.7988C128.772 27.8555 128.942 27.9499 129.102 28.0631L128.885 28.8749Z" fill="#0B489D" stroke="#0B489D" stroke-width="0.188791"/>
<path d="M131.216 27.7139C131.726 27.7139 132.132 27.8649 132.444 28.1575C132.746 28.4502 132.897 28.8466 132.897 29.3469C132.897 29.885 132.717 30.3381 132.359 30.6873C132 31.0366 131.537 31.2159 130.98 31.2159C130.48 31.2159 130.084 31.0743 129.782 30.7817C129.48 30.4891 129.338 30.1021 129.338 29.6207C129.338 29.0637 129.517 28.6106 129.867 28.2614C130.216 27.8838 130.669 27.7139 131.216 27.7139ZM131.226 28.5634C130.943 28.5634 130.726 28.6578 130.556 28.8466C130.386 29.0354 130.301 29.2808 130.301 29.5923C130.301 29.8283 130.367 30.0077 130.49 30.1398C130.612 30.272 130.792 30.3381 131.009 30.3381C131.283 30.3381 131.509 30.2437 131.679 30.0549C131.849 29.8661 131.934 29.6301 131.934 29.328C131.934 29.0826 131.868 28.8938 131.745 28.7617C131.632 28.6389 131.452 28.5729 131.226 28.5634Z" fill="#0B489D" stroke="#0B489D" stroke-width="0.188791"/>
<path d="M133.359 31.0745L133.784 27.8179H134.652L134.577 28.3276C134.775 28.1105 134.973 27.9595 135.172 27.8556C135.37 27.7518 135.568 27.7046 135.785 27.7046C136.134 27.7046 136.408 27.7895 136.606 27.9595C136.805 28.1294 136.899 28.3748 136.899 28.6769C136.899 28.7996 136.88 28.9978 136.842 29.2716C136.842 29.3093 136.833 29.3282 136.833 29.3471L136.606 31.0651H135.672L135.908 29.2527C135.917 29.1866 135.917 29.13 135.927 29.0828C135.936 29.0356 135.936 28.9978 135.936 28.9695C135.936 28.8185 135.889 28.6957 135.804 28.6108C135.719 28.5258 135.596 28.4881 135.436 28.4881C135.162 28.4881 134.945 28.5636 134.794 28.7241C134.643 28.8845 134.549 29.13 134.501 29.4698L134.294 31.0651H133.359V31.0745Z" fill="#0B489D" stroke="#0B489D" stroke-width="0.188791"/>
<path d="M137.494 31.0745L137.919 27.8179H138.787L138.711 28.3276C138.91 28.1105 139.108 27.9595 139.306 27.8556C139.504 27.7518 139.703 27.7046 139.92 27.7046C140.269 27.7046 140.543 27.7895 140.741 27.9595C140.939 28.1294 141.034 28.3748 141.034 28.6769C141.034 28.7996 141.015 28.9978 140.977 29.2716C140.977 29.3093 140.968 29.3282 140.968 29.3471L140.741 31.0651H139.806L140.042 29.2527C140.052 29.1866 140.052 29.13 140.061 29.0828C140.071 29.0356 140.071 28.9978 140.071 28.9695C140.071 28.8185 140.024 28.6957 139.939 28.6108C139.854 28.5258 139.731 28.4881 139.57 28.4881C139.297 28.4881 139.08 28.5636 138.929 28.7241C138.778 28.8845 138.683 29.13 138.636 29.4698L138.428 31.0651H137.494V31.0745Z" fill="#0B489D" stroke="#0B489D" stroke-width="0.188791"/>
<path d="M142.553 29.6586V29.7341C142.553 29.9512 142.619 30.1211 142.761 30.2533C142.903 30.3854 143.091 30.4421 143.327 30.4421C143.497 30.4421 143.639 30.4043 143.771 30.3382C143.903 30.2721 144.026 30.1494 144.149 29.989L144.781 30.5176C144.621 30.7536 144.413 30.9235 144.168 31.0462C143.922 31.1689 143.62 31.2255 143.29 31.2255C142.789 31.2255 142.383 31.0745 142.081 30.7819C141.779 30.4893 141.628 30.1022 141.628 29.6114C141.628 29.0639 141.798 28.6108 142.147 28.2615C142.497 27.9123 142.931 27.7329 143.46 27.7329C143.95 27.7329 144.328 27.8839 144.611 28.1766C144.894 28.4692 145.027 28.8845 145.027 29.4037C145.027 29.4603 145.027 29.5453 145.017 29.6586V29.6775H142.553V29.6586ZM142.601 29.1016H144.13C144.13 28.8751 144.073 28.7052 143.95 28.5825C143.837 28.4598 143.677 28.4031 143.46 28.4031C143.233 28.4031 143.054 28.4598 142.903 28.5825C142.77 28.6957 142.667 28.8751 142.601 29.1016Z" fill="#0B489D" stroke="#0B489D" stroke-width="0.188791"/>
<path d="M148.255 28.8749C148.113 28.7617 147.981 28.6767 147.849 28.6201C147.717 28.5634 147.585 28.5351 147.453 28.5351C147.15 28.5351 146.905 28.6295 146.726 28.8277C146.537 29.026 146.452 29.2808 146.452 29.6018C146.452 29.8472 146.527 30.036 146.669 30.1776C146.811 30.3192 147.018 30.3853 147.273 30.3853C147.415 30.3853 147.556 30.3664 147.698 30.3192C147.84 30.272 148.009 30.2059 148.189 30.121L148.028 31.0177C147.896 31.0838 147.755 31.131 147.604 31.1593C147.453 31.1876 147.301 31.2065 147.132 31.2065C146.631 31.2065 146.225 31.0649 145.933 30.7723C145.64 30.4797 145.489 30.0926 145.489 29.6018C145.489 29.0543 145.668 28.6012 146.018 28.2425C146.367 27.8838 146.82 27.7139 147.358 27.7139C147.575 27.7139 147.773 27.7422 147.953 27.7988C148.142 27.8555 148.311 27.9499 148.472 28.0631L148.255 28.8749Z" fill="#0B489D" stroke="#0B489D" stroke-width="0.188791"/>
<path d="M148.897 31.0745L149.237 28.5635H148.614L148.708 27.8272H149.321L149.463 26.7417H150.407L150.256 27.8272H150.888L150.794 28.5635H150.162L149.831 31.0745H148.897Z" fill="#0B489D" stroke="#0B489D" stroke-width="0.188791"/>
<path d="M151.049 31.0745L151.474 27.8178H152.408L151.983 31.0745H151.049ZM151.549 26.5624C151.549 26.4114 151.606 26.2792 151.71 26.1754C151.814 26.0715 151.946 26.0149 152.097 26.0149C152.248 26.0149 152.38 26.0715 152.484 26.1754C152.588 26.2792 152.644 26.4114 152.644 26.5624C152.644 26.7134 152.588 26.8456 152.484 26.9494C152.38 27.0532 152.248 27.1099 152.097 27.1099C151.946 27.1099 151.814 27.0532 151.71 26.9494C151.606 26.8456 151.549 26.7134 151.549 26.5624Z" fill="#0B489D" stroke="#0B489D" stroke-width="0.188791"/>
<path d="M154.778 27.7139C155.287 27.7139 155.693 27.8649 156.005 28.1575C156.307 28.4502 156.458 28.8466 156.458 29.3469C156.458 29.885 156.278 30.3381 155.92 30.6873C155.561 31.0366 155.099 31.2159 154.542 31.2159C154.041 31.2159 153.645 31.0743 153.343 30.7817C153.041 30.4891 152.899 30.1021 152.899 29.6207C152.899 29.0637 153.078 28.6106 153.428 28.2614C153.777 27.8838 154.23 27.7139 154.778 27.7139ZM154.787 28.5634C154.504 28.5634 154.287 28.6578 154.117 28.8466C153.947 29.0354 153.862 29.2808 153.862 29.5923C153.862 29.8283 153.928 30.0077 154.051 30.1398C154.173 30.272 154.353 30.3381 154.57 30.3381C154.844 30.3381 155.07 30.2437 155.24 30.0549C155.41 29.8661 155.495 29.6301 155.495 29.328C155.495 29.0826 155.429 28.8938 155.306 28.7617C155.183 28.6389 155.014 28.5729 154.787 28.5634Z" fill="#0B489D" stroke="#0B489D" stroke-width="0.188791"/>
<path d="M156.92 31.0745L157.345 27.8179H158.214L158.138 28.3276C158.336 28.1105 158.535 27.9595 158.733 27.8556C158.931 27.7518 159.129 27.7046 159.346 27.7046C159.696 27.7046 159.969 27.7895 160.168 27.9595C160.366 28.1294 160.46 28.3748 160.46 28.6769C160.46 28.7996 160.441 28.9978 160.404 29.2716C160.404 29.3093 160.394 29.3282 160.394 29.3471L160.168 31.0651H159.233L159.469 29.2527C159.478 29.1866 159.478 29.13 159.488 29.0828C159.497 29.0356 159.497 28.9978 159.497 28.9695C159.497 28.8185 159.45 28.6957 159.365 28.6108C159.28 28.5258 159.158 28.4881 158.997 28.4881C158.723 28.4881 158.506 28.5636 158.355 28.7241C158.204 28.8845 158.11 29.13 158.063 29.4698L157.855 31.0651H156.92V31.0745Z" fill="#0B489D" stroke="#0B489D" stroke-width="0.188791"/>
<path d="M161.395 30.0267C161.508 30.1872 161.631 30.3099 161.772 30.3949C161.914 30.4798 162.046 30.527 162.178 30.527C162.291 30.527 162.376 30.4987 162.442 30.4421C162.509 30.3854 162.546 30.3099 162.546 30.225C162.546 30.0928 162.424 29.9512 162.169 29.8096C162.065 29.753 161.989 29.7058 161.933 29.668C161.697 29.517 161.536 29.3754 161.451 29.2338C161.366 29.0922 161.319 28.9412 161.319 28.7524C161.319 28.4503 161.442 28.1954 161.678 27.9972C161.914 27.799 162.216 27.7046 162.594 27.7046C162.82 27.7046 163.037 27.7518 163.235 27.8367C163.434 27.9217 163.622 28.0633 163.783 28.2332L163.226 28.7335C163.103 28.6013 162.99 28.507 162.877 28.4409C162.763 28.3748 162.65 28.3465 162.537 28.3465C162.433 28.3465 162.348 28.3748 162.291 28.422C162.235 28.4692 162.197 28.5447 162.197 28.6297C162.197 28.7524 162.367 28.9034 162.707 29.0922C162.801 29.1488 162.877 29.1866 162.933 29.2244C163.113 29.3282 163.245 29.4415 163.33 29.5831C163.415 29.7247 163.462 29.8851 163.462 30.0645C163.462 30.3949 163.349 30.6686 163.113 30.8763C162.877 31.0839 162.575 31.1878 162.197 31.1878C161.942 31.1878 161.706 31.1406 161.489 31.0368C161.272 30.9329 161.064 30.7819 160.866 30.5648L161.395 30.0267Z" fill="#0B489D" stroke="#0B489D" stroke-width="0.188791"/>
</svg>
