<svg width="196" height="40" viewBox="0 0 196 40" fill="none" xmlns="http://www.w3.org/2000/svg">
<rect width="196" height="40" fill="white"/>
<path d="M20.9086 14.7231V27.894H17.4645V14.7391H11V11.6306H27.3731V14.7391H20.9086V14.7231Z" fill="#1B2D3F"/>
<path d="M36.084 27.8942V11.6147H48.5526V14.7232H39.528V17.5273H47.7238V20.6678H39.528V24.8017H49.1051V27.8942H36.084Z" fill="#1B2D3F"/>
<path d="M58.9961 27.8942V11.6147H62.4402V18.3925L69.8256 11.6147H74.6325L65.6632 19.7224L74.5957 27.8781H69.6782L62.4402 21.0523V27.8942H58.9961Z" fill="#1B2D3F"/>
<path d="M95.7372 27.8942L87.2468 16.3896V27.8942H83.8027V11.6147H88.2966L96.787 23.2475V11.6147H100.231V27.8942H95.7372Z" fill="#1B2D3F"/>
<path d="M109.846 19.7223C109.846 15.2519 113.419 11.2942 118.889 11.2942C124.359 11.2942 127.913 15.3 127.913 19.7704C127.913 24.2408 124.34 28.1985 118.889 28.1985C113.437 28.1985 109.846 24.1927 109.846 19.7223ZM124.248 19.7704C124.248 16.8702 122.333 14.2905 118.889 14.2905C115.445 14.2905 113.511 16.8221 113.511 19.7223C113.511 22.6225 115.445 25.2022 118.889 25.2022C122.37 25.2022 124.248 22.6706 124.248 19.7704Z" fill="#1B2D3F"/>
<path d="M143.57 23.8884L148.782 11.6308H152.521L145.596 27.8942H141.507L134.582 11.6147H138.321L143.57 23.8884Z" fill="#1B2D3F"/>
<path d="M176.297 19.6582C175.707 20.2671 175.008 20.7958 174.234 21.2284C174.473 21.7412 174.602 22.286 174.602 22.8468C174.547 25.5066 172.024 27.6377 168.967 27.5896C168.948 27.5896 168.911 27.5896 168.893 27.5896C165.78 27.6537 163.184 25.5547 163.055 22.8468C163.055 22.2699 163.165 21.6931 163.423 21.1483C163.681 20.6035 164.049 20.0908 164.51 19.6742C165.025 19.2095 165.633 18.825 166.314 18.5686V19.6261C166.314 19.8505 166.535 20.0427 166.793 20.0427C166.885 20.0427 166.959 20.0267 167.033 19.9786L170.366 18.2962L170.9 18.0238C171.121 17.9117 171.214 17.6553 171.085 17.447C171.048 17.3829 170.974 17.3348 170.9 17.2868L169.887 16.774L167.014 15.332C166.793 15.2198 166.499 15.2839 166.351 15.4922C166.314 15.5563 166.296 15.6204 166.296 15.7005V17.0304C165.265 17.2707 164.289 17.6553 163.386 18.168C162.668 18.5846 162.023 19.0813 161.471 19.6422C160.126 21.0041 159.39 22.7186 159.371 24.5132C159.371 28.8234 163.626 32.3004 168.875 32.3004C174.123 32.3004 178.378 28.8073 178.378 24.5132C178.378 22.7506 177.641 21.0201 176.297 19.6582Z" fill="#E42D12"/>
<path d="M168.892 7C163.643 7 159.389 10.493 159.389 14.7872C159.389 16.5818 160.144 18.3123 161.488 19.6582C162.041 19.0974 162.685 18.5847 163.404 18.1841C163.164 17.6393 163.035 17.0625 163.035 16.4856C163.164 13.7777 165.761 11.6787 168.874 11.7428C171.931 11.6627 174.491 13.7457 174.583 16.4216C174.583 16.4376 174.583 16.4696 174.583 16.4856C174.583 17.0304 174.454 17.5912 174.215 18.104C173.938 18.6968 173.552 19.2256 173.036 19.6742C172.483 20.1549 171.839 20.5395 171.121 20.8119V19.7383C171.121 19.514 170.9 19.3217 170.642 19.3217C170.55 19.3217 170.476 19.3377 170.402 19.3858L167.106 21.0362L166.535 21.3246C166.314 21.4368 166.222 21.6931 166.35 21.9014C166.387 21.9655 166.461 22.0136 166.535 22.0617L167.4 22.4943L170.402 24.0005C170.623 24.1126 170.918 24.0485 171.065 23.8562C171.102 23.7922 171.139 23.7281 171.139 23.6479V22.3661C172.226 22.1578 173.275 21.7732 174.215 21.2445C174.988 20.8119 175.688 20.2831 176.277 19.6742C177.622 18.3123 178.359 16.5978 178.377 14.8032C178.395 10.493 174.141 7 168.892 7Z" fill="#56AE31"/>
<path d="M180.23 9.08788C180.23 8.78344 180.286 8.51105 180.415 8.25468C180.544 7.99831 180.709 7.77399 180.93 7.59774C181.151 7.40546 181.409 7.26125 181.685 7.16511C181.98 7.05295 182.293 7.00488 182.606 7.00488C182.938 7.00488 183.233 7.05295 183.527 7.16511C183.822 7.27727 184.08 7.42148 184.301 7.59774C184.522 7.77399 184.687 7.99831 184.816 8.25468C184.945 8.51105 185.001 8.78344 185.001 9.07186C185.001 9.37629 184.945 9.64869 184.816 9.90505C184.687 10.1614 184.522 10.3857 184.301 10.562C184.08 10.7543 183.822 10.8985 183.527 10.9946C183.233 11.1068 182.919 11.1549 182.606 11.1549C182.275 11.1549 181.962 11.1068 181.685 10.9946C181.391 10.8825 181.133 10.7383 180.93 10.562C180.709 10.3857 180.544 10.1614 180.415 9.90505C180.286 9.64869 180.23 9.37629 180.23 9.08788ZM180.599 9.08788C180.599 9.34425 180.654 9.56857 180.765 9.77687C180.875 9.98517 181.004 10.1774 181.188 10.3377C181.372 10.4979 181.593 10.6261 181.833 10.7062C182.072 10.7863 182.33 10.8504 182.625 10.8504C182.919 10.8504 183.177 10.8023 183.417 10.7062C183.656 10.6101 183.877 10.4979 184.061 10.3377C184.245 10.1774 184.393 9.98517 184.485 9.77687C184.595 9.55255 184.651 9.32822 184.651 9.07186C184.651 8.81549 184.595 8.59116 184.485 8.38286C184.374 8.17457 184.245 7.98229 184.061 7.82206C183.877 7.66183 183.656 7.53364 183.417 7.45353C183.177 7.35739 182.919 7.32534 182.625 7.32534C182.33 7.32534 182.072 7.37341 181.833 7.46955C181.593 7.56569 181.372 7.67785 181.188 7.83808C181.004 7.99831 180.857 8.19059 180.765 8.39889C180.654 8.59116 180.599 8.83151 180.599 9.08788ZM181.741 7.88615H182.754C183.085 7.88615 183.325 7.93422 183.49 8.04638C183.656 8.15854 183.73 8.3348 183.73 8.57514C183.73 8.78344 183.656 8.94367 183.527 9.05583C183.38 9.15197 183.214 9.21606 183.012 9.23209L183.803 10.2896H183.38L182.625 9.26413H182.127V10.2896H181.741V7.88615ZM182.109 8.95969H182.588C182.68 8.95969 182.772 8.95969 182.864 8.94367C182.956 8.94367 183.03 8.92765 183.104 8.8956C183.177 8.86356 183.233 8.83151 183.269 8.78344C183.306 8.73537 183.325 8.65526 183.325 8.55912C183.325 8.479 183.306 8.41491 183.269 8.36684C183.233 8.31877 183.177 8.28673 183.122 8.25468C183.067 8.22263 182.993 8.20661 182.919 8.20661C182.846 8.20661 182.772 8.19059 182.698 8.19059H182.109V8.95969Z" fill="#1B2D3F"/>
</svg>
