<svg width="196" height="40" viewBox="0 0 196 40" fill="none" xmlns="http://www.w3.org/2000/svg">
<g clip-path="url(#clip0_23_3)">
<path d="M196 0H0V40H196V0Z" fill="white"/>
<g clip-path="url(#clip1_23_3)">
<path d="M104.346 11.7887C105.118 11.7887 105.743 11.1593 105.743 10.3829C105.743 9.60646 105.118 8.97705 104.346 8.97705C103.574 8.97705 102.949 9.60646 102.949 10.3829C102.949 11.1593 103.574 11.7887 104.346 11.7887Z" fill="#87CDF0"/>
<path d="M72.3042 33.0252C71.9479 32.6666 71.9019 32.0887 72.2177 31.6747C72.5617 31.2257 73.2012 31.142 73.6474 31.487C79.4842 36.0053 87.8207 35.4545 93.0372 30.2056C98.258 24.9521 98.8032 16.559 94.3027 10.6834C93.9588 10.2344 94.042 9.59083 94.4882 9.24474C94.9344 8.89864 95.5785 8.97895 95.9179 9.43133C101.041 16.1212 100.423 25.6759 94.4792 31.6567C88.5412 37.6317 79.0504 38.2583 72.4043 33.1134C72.3684 33.0862 72.3357 33.0568 72.3042 33.0252Z" fill="#87CDF0"/>
<path d="M82.8446 15.6983C82.8446 15.1215 82.3916 14.6521 81.8252 14.6273V14.625H73.1525V14.6273C72.585 14.6521 72.1331 15.1215 72.1331 15.6983C72.1331 16.2751 72.5861 16.7445 73.1525 16.7693V16.7716H76.4211V24.1763H76.4233C76.4481 24.7474 76.9145 25.2021 77.4877 25.2021C78.061 25.2021 78.5274 24.7463 78.5521 24.1763H78.5544V16.7716H81.8229V16.7693C82.3916 16.7445 82.8446 16.2751 82.8446 15.6983Z" fill="#87CDF0"/>
<path d="M69.8543 30.634C69.8295 30.6091 69.807 30.5843 69.7845 30.556C64.3288 23.8265 64.8233 14.1147 70.9344 7.9654C77.0455 1.81614 86.697 1.3185 93.3858 6.80725C93.8197 7.17369 93.8871 7.81156 93.532 8.25153C93.1757 8.69034 92.5339 8.75594 92.0966 8.39856C86.2227 3.57711 77.7446 4.0148 72.3765 9.41644C67.0083 14.8181 66.5734 23.3492 71.3649 29.2598C71.7201 29.6987 71.6549 30.3456 71.2188 30.7041C70.8096 31.0389 70.2195 31.0016 69.8543 30.634Z" fill="#063D78"/>
<path d="M93.2496 24.0267C93.2496 23.4498 92.7966 22.9805 92.2301 22.9555V22.9533H86.9159V15.7534H86.9137C86.889 15.1822 86.4225 14.7275 85.8493 14.7275C85.2761 14.7275 84.8096 15.1833 84.7849 15.7534H84.7827V24.0267C84.7827 24.6193 85.2603 25.0999 85.8493 25.0999C85.8583 25.0999 85.8672 25.0988 85.8763 25.0988L85.8774 25.0999H92.2301V25.0977C92.7966 25.0728 93.2496 24.6034 93.2496 24.0267Z" fill="#063D78"/>
<path d="M113.808 14.7036C113.089 14.7036 112.484 14.7896 111.84 15.0995C111.189 15.4127 110.906 15.5304 110.345 16.1253V15.8086C110.345 15.1979 109.854 14.7036 109.247 14.7036C108.64 14.7036 108.149 15.1979 108.149 15.8086V24.0966C108.149 24.7074 108.64 25.2016 109.247 25.2016C109.854 25.2016 110.345 24.7074 110.345 24.0966V21.2555C110.345 19.6472 110.638 18.6588 111.135 18.0095C111.621 17.3739 112.727 16.909 113.521 16.9147C114.735 16.9226 115.562 17.7324 115.561 19.4414V24.0977H115.562C115.562 24.7085 116.054 25.2027 116.661 25.2027C117.268 25.2027 117.759 24.7085 117.759 24.0977V18.9483C117.759 17.5798 117.47 16.7077 116.745 15.9839C116.02 15.2601 114.985 14.7036 113.808 14.7036Z" fill="#063D78"/>
<path d="M129.999 19.3989C129.999 17.8868 129.502 16.6992 128.508 15.8374C127.515 14.9755 126.318 14.5447 124.899 14.5447C123.481 14.5447 122.474 15.031 121.428 16.0048C120.381 16.9785 119.858 18.2917 119.858 19.9418C119.858 21.5931 120.372 22.9095 121.398 23.889C122.424 24.8695 123.671 25.4045 125.134 25.3604C126.838 25.3084 127.324 25.1387 128.343 24.6671C128.737 24.5246 129.019 24.1469 129.019 23.7012C129.019 23.1346 128.562 22.6743 127.999 22.6743C127.879 22.6743 127.765 22.6958 127.659 22.7342V22.7331C127.654 22.7354 127.651 22.7365 127.648 22.7387C127.601 22.7557 127.555 22.7761 127.512 22.7998C126.478 23.2613 125.945 23.4875 124.938 23.4502C124.32 23.4275 123.736 23.2319 123.096 22.7648C122.455 22.2988 122.108 21.6835 122.056 20.9201H128.901L128.917 20.9054C129.46 20.8975 129.907 20.4926 129.985 19.9667L130 19.9543V19.3989H129.999ZM123.017 17.1787C123.658 16.6856 124.154 16.4391 124.959 16.4391C125.763 16.4391 126.429 16.6766 126.979 17.1494C127.528 17.6233 127.802 18.3007 127.802 19.1817H122.056C122.056 18.3414 122.375 17.673 123.017 17.1787Z" fill="#063D78"/>
<path d="M104.297 14.7036C103.69 14.7036 103.199 15.1979 103.199 15.8086V24.0966C103.199 24.7074 103.69 25.2016 104.297 25.2016C104.904 25.2016 105.395 24.7074 105.395 24.0966V15.8086C105.395 15.1979 104.904 14.7036 104.297 14.7036Z" fill="#063D78"/>
</g>
</g>
<defs>
<clipPath id="clip0_23_3">
<rect width="196" height="40" fill="white"/>
</clipPath>
<clipPath id="clip1_23_3">
<rect width="64" height="34" fill="white" transform="translate(66 3)"/>
</clipPath>
</defs>
</svg>
