<svg width="157" height="36" viewBox="0 0 157 36" fill="none" xmlns="http://www.w3.org/2000/svg">
<mask id="mask0_1_94" style="mask-type:luminance" maskUnits="userSpaceOnUse" x="48" y="4" width="21" height="22">
<path d="M51.8179 4.5481L58.3419 21.1943L64.8936 4.5481H68.5513L60.0681 25.1157H56.6457L48.1324 4.5481H51.8179Z" fill="white"/>
</mask>
<g mask="url(#mask0_1_94)">
<path d="M48.1324 4.5481H68.5513V25.1157H48.1324V4.5481Z" fill="black"/>
</g>
<mask id="mask1_1_94" style="mask-type:luminance" maskUnits="userSpaceOnUse" x="68" y="16" width="9" height="4">
<path d="M76.1643 16.4097V19.1309H68.3134V16.4097H76.1643Z" fill="white"/>
</mask>
<g mask="url(#mask1_1_94)">
<path d="M68.3134 16.4097H76.1643V19.1309H68.3134V16.4097Z" fill="#00B397"/>
</g>
<mask id="mask2_1_94" style="mask-type:luminance" maskUnits="userSpaceOnUse" x="75" y="4" width="22" height="22">
<path d="M79.5685 4.5481L86.0925 21.1943L92.6442 4.5481H96.302L87.8187 25.1157H84.3963L75.8831 4.5481H79.5685Z" fill="white"/>
</mask>
<g mask="url(#mask2_1_94)">
<path d="M75.8831 4.5481H96.302V25.1157H75.8831V4.5481Z" fill="black"/>
</g>
<mask id="mask3_1_94" style="mask-type:luminance" maskUnits="userSpaceOnUse" x="95" y="10" width="16" height="16">
<path d="M102.796 10.2816C104.873 10.2816 106.803 11.2487 107.71 12.8852L107.797 10.6048H110.723V25.0282H107.857L107.71 22.6878C106.775 24.5596 104.493 25.409 102.736 25.409C98.5248 25.409 95.3354 22.7178 95.3354 17.8015C95.3354 12.9752 98.6701 10.2816 102.796 10.2816ZM103.029 13.0329C100.456 13.0329 98.3494 14.8748 98.3494 17.8015C98.3494 20.7559 100.456 22.6 103.029 22.6C109.26 22.6 109.26 13.0329 103.029 13.0329Z" fill="white"/>
</mask>
<g mask="url(#mask3_1_94)">
<path d="M95.3354 10.2816H110.723V25.409H95.3354V10.2816Z" fill="black"/>
</g>
<mask id="mask4_1_94" style="mask-type:luminance" maskUnits="userSpaceOnUse" x="114" y="4" width="4" height="22">
<path d="M117.24 4.57727V25.0272H114.226V5.88367L117.24 4.57727Z" fill="white"/>
</mask>
<g mask="url(#mask4_1_94)">
<path d="M114.226 4.57727H117.24V25.0272H114.226V4.57727Z" fill="black"/>
</g>
<mask id="mask5_1_94" style="mask-type:luminance" maskUnits="userSpaceOnUse" x="120" y="4" width="4" height="22">
<path d="M123.758 4.57727V25.0272H120.744V5.88367L123.758 4.57727Z" fill="white"/>
</mask>
<g mask="url(#mask5_1_94)">
<path d="M120.744 4.57727H123.758V25.0272H120.744V4.57727Z" fill="black"/>
</g>
<mask id="mask6_1_94" style="mask-type:luminance" maskUnits="userSpaceOnUse" x="126" y="10" width="16" height="16">
<path d="M134.018 10.2815C138.671 10.2815 141.83 13.1505 141.274 19.0016H129.574C129.837 21.2243 131.621 22.6299 134.281 22.6299C135.775 22.6299 137.558 22.1014 138.465 21.0789L140.425 22.9808C138.934 24.6472 136.446 25.4366 134.224 25.4366C129.486 25.4366 126.442 22.4245 126.442 17.8013C126.442 13.4136 129.514 10.2815 134.018 10.2815ZM134.106 12.9751C131.884 12.9751 130.1 14.1453 129.631 16.4557H138.378C138.172 14.1453 136.564 12.9751 134.106 12.9751Z" fill="white"/>
</mask>
<g mask="url(#mask6_1_94)">
<path d="M126.442 10.2815H141.337V25.4366H126.442V10.2815Z" fill="black"/>
</g>
<mask id="mask7_1_94" style="mask-type:luminance" maskUnits="userSpaceOnUse" x="141" y="10" width="16" height="21">
<path d="M157 10.6055V30.5661H141.788V10.6055H157Z" fill="white"/>
</mask>
<g mask="url(#mask7_1_94)">
<mask id="mask8_1_94" style="mask-type:luminance" maskUnits="userSpaceOnUse" x="141" y="10" width="17" height="21">
<path d="M145.298 10.6055L147.786 17.4213L149.219 21.5183L150.77 17.479L153.636 10.6055H157L148.402 30.5661H145.069L147.55 24.8235L141.788 10.6055H145.298Z" fill="white"/>
</mask>
<g mask="url(#mask8_1_94)">
<path d="M141.788 10.6055H157V30.5661H141.788V10.6055Z" fill="black"/>
</g>
</g>
<mask id="mask9_1_94" style="mask-type:luminance" maskUnits="userSpaceOnUse" x="2" y="0" width="35" height="13">
<path d="M35.1689 0L36.7635 2.075L19.6077 12.6323L2.45197 2.075L4.04662 0H35.1689Z" fill="white"/>
</mask>
<g mask="url(#mask9_1_94)">
<path d="M2.45197 0H36.7635V12.6323H2.45197V0Z" fill="#63CCC8"/>
</g>
<mask id="mask10_1_94" style="mask-type:luminance" maskUnits="userSpaceOnUse" x="0" y="3" width="19" height="33">
<path d="M1.39157 3.80518L18.5935 14.3902V35.1125L0 6.92806L1.39157 3.80518Z" fill="white"/>
</mask>
<g mask="url(#mask10_1_94)">
<path d="M0 3.80518H18.5935V35.1125H0V3.80518Z" fill="#004F58"/>
</g>
<mask id="mask11_1_94" style="mask-type:luminance" maskUnits="userSpaceOnUse" x="20" y="3" width="20" height="33">
<path d="M37.8241 3.80493L39.2157 6.92782L20.6222 35.1123V14.39L37.8241 3.80493Z" fill="white"/>
</mask>
<g mask="url(#mask11_1_94)">
<path d="M20.6222 3.80493H39.2157V35.1123H20.6222V3.80493Z" fill="#00B397"/>
</g>
</svg>
