<svg width="128" height="38" viewBox="0 0 128 38" fill="none" xmlns="http://www.w3.org/2000/svg">
<path d="M4.46067 33.7525C4.46067 34.3685 4.24825 34.857 3.80219 35.1969C3.35612 35.5367 2.74012 35.7067 1.97544 35.7067C1.14703 35.7067 0.509788 35.6004 0.0637207 35.388V34.6021C0.361099 34.7296 0.658477 34.8145 0.998337 34.8995C1.3382 34.9845 1.67806 35.0057 1.99668 35.0057C2.54895 35.0057 2.95254 34.8995 3.22867 34.6871C3.50481 34.4747 3.63226 34.1985 3.63226 33.8374C3.63226 33.6038 3.58977 33.3914 3.48357 33.2427C3.37736 33.094 3.22867 32.9453 2.99502 32.8178C2.76136 32.6904 2.4215 32.5417 1.9542 32.3718C1.29572 32.1381 0.849648 31.862 0.55227 31.5434C0.254892 31.2247 0.127445 30.7999 0.127445 30.2901C0.127445 29.7591 0.339857 29.313 0.743442 28.9944C1.14703 28.6758 1.67806 28.5059 2.35778 28.5059C3.05874 28.5059 3.69598 28.6333 4.2695 28.8882L4.0146 29.5892C3.44109 29.3555 2.86757 29.2281 2.33654 29.2281C1.91171 29.2281 1.57185 29.313 1.31696 29.5042C1.0833 29.6954 0.955855 29.9503 0.955855 30.2689C0.955855 30.5025 0.998337 30.715 1.0833 30.8636C1.16827 31.0123 1.31696 31.161 1.52937 31.2885C1.74178 31.4159 2.0604 31.5646 2.50647 31.7133C3.24991 31.9682 3.73846 32.2656 4.0146 32.5629C4.33322 32.9028 4.46067 33.2851 4.46067 33.7525Z" fill="black"/>
<path d="M7.75308 35.7066C6.9884 35.7066 6.3724 35.4729 5.92633 35.0056C5.48027 34.5383 5.24661 33.8798 5.24661 33.0302C5.24661 32.1805 5.45903 31.522 5.86261 31.0122C6.28744 30.5237 6.83971 30.2688 7.54067 30.2688C8.19915 30.2688 8.70894 30.4812 9.09129 30.906C9.47363 31.3309 9.6648 31.9044 9.6648 32.6053V33.1151H6.05378C6.07502 33.7311 6.22371 34.1984 6.52109 34.5171C6.81847 34.8357 7.22205 35.0056 7.77433 35.0056C8.34784 35.0056 8.90011 34.8782 9.45239 34.6445V35.3455C9.17625 35.4729 8.90011 35.5579 8.66646 35.6004C8.41156 35.6853 8.09295 35.7066 7.75308 35.7066ZM7.54067 30.9485C7.11585 30.9485 6.77599 31.076 6.54233 31.3521C6.28744 31.6282 6.13875 32.0106 6.09626 32.4991H8.83639C8.83639 31.9893 8.73018 31.607 8.49653 31.3521C8.26288 31.076 7.94426 30.9485 7.54067 30.9485Z" fill="black"/>
<path d="M13.1696 30.29C13.4032 30.29 13.6156 30.3113 13.7856 30.3538L13.6794 31.0972C13.467 31.0547 13.2758 31.0335 13.1059 31.0335C12.681 31.0335 12.3199 31.2034 12.0226 31.5433C11.7252 31.8831 11.5765 32.308 11.5765 32.839V35.6428H10.7906V30.3962H11.449L11.534 31.3733H11.5765C11.7677 31.0335 12.0013 30.7786 12.2774 30.5874C12.5323 30.375 12.851 30.29 13.1696 30.29Z" fill="black"/>
<path d="M15.6761 35.6216L13.6794 30.375H14.529L15.6548 33.4762C15.9097 34.1984 16.0584 34.6657 16.1009 34.8994H16.1434C16.1859 34.7295 16.2921 34.3896 16.4832 33.8586C16.6744 33.3275 17.078 32.1805 17.7365 30.375H18.5861L16.5894 35.6216H15.6761Z" fill="black"/>
<path d="M21.4112 35.7066C20.6465 35.7066 20.0305 35.4729 19.5845 35.0056C19.1384 34.5383 18.9048 33.8798 18.9048 33.0302C18.9048 32.1805 19.1172 31.522 19.5208 31.0122C19.9456 30.5237 20.4979 30.2688 21.1988 30.2688C21.8573 30.2688 22.3671 30.4812 22.7494 30.906C23.1318 31.3309 23.3229 31.9044 23.3229 32.6053V33.1151H19.7119C19.7332 33.7311 19.8819 34.1984 20.1792 34.5171C20.4766 34.8357 20.8802 35.0056 21.4325 35.0056C22.006 35.0056 22.5583 34.8782 23.1105 34.6445V35.3455C22.8344 35.4729 22.5583 35.5579 22.3246 35.6004C22.0697 35.6853 21.7511 35.7066 21.4112 35.7066ZM21.1988 30.9485C20.774 30.9485 20.4341 31.076 20.2005 31.3521C19.9456 31.6282 19.7969 32.0106 19.7544 32.4991H22.4945C22.4945 31.9893 22.3883 31.607 22.1547 31.3521C21.921 31.076 21.6024 30.9485 21.1988 30.9485Z" fill="black"/>
<path d="M26.8277 30.29C27.0614 30.29 27.2738 30.3113 27.4437 30.3538L27.3375 31.0972C27.1251 31.0547 26.9339 31.0335 26.764 31.0335C26.3392 31.0335 25.9781 31.2034 25.6807 31.5433C25.3833 31.8831 25.2346 32.308 25.2346 32.839V35.6428H24.4487V30.3962H25.1072L25.1921 31.3733H25.2346C25.4258 31.0335 25.6595 30.7786 25.9356 30.5874C26.2117 30.375 26.5091 30.29 26.8277 30.29Z" fill="black"/>
<path d="M31.5645 34.1984C31.5645 34.687 31.3734 35.0693 31.0123 35.3242C30.6512 35.5791 30.1414 35.7278 29.4829 35.7278C28.7819 35.7278 28.2509 35.6216 27.8473 35.3879V34.6445C28.1022 34.772 28.3784 34.8782 28.6545 34.9419C28.9519 35.0056 29.228 35.0481 29.4829 35.0481C29.9077 35.0481 30.2263 34.9844 30.4388 34.8569C30.6512 34.7295 30.7786 34.5171 30.7786 34.2622C30.7786 34.0497 30.6937 33.8798 30.5237 33.7311C30.3538 33.5824 29.9927 33.4125 29.4829 33.2213C28.9944 33.0302 28.6545 32.8815 28.4421 32.754C28.2297 32.6266 28.081 32.4567 27.9748 32.2867C27.8686 32.1168 27.8261 31.9044 27.8261 31.6707C27.8261 31.2459 27.996 30.906 28.3571 30.6511C28.697 30.3962 29.1855 30.29 29.7803 30.29C30.3538 30.29 30.9061 30.3962 31.4371 30.6299L31.161 31.2671C30.6299 31.0547 30.1626 30.9485 29.7378 30.9485C29.3555 30.9485 29.0793 31.0122 28.8881 31.1185C28.697 31.2459 28.5908 31.3946 28.5908 31.607C28.5908 31.7557 28.6333 31.8619 28.697 31.9681C28.7607 32.0743 28.8881 32.1593 29.0368 32.2442C29.1855 32.3292 29.5041 32.4567 29.9502 32.6266C30.5662 32.8602 30.991 33.0726 31.2034 33.3063C31.4583 33.5612 31.5645 33.8373 31.5645 34.1984Z" fill="black"/>
<path d="M48.1752 33.7525C48.1752 34.3685 47.9628 34.857 47.4955 35.1969C47.0495 35.5367 46.4335 35.7067 45.6688 35.7067C44.8404 35.7067 44.2031 35.6004 43.757 35.388V34.6021C44.0544 34.7296 44.3518 34.8145 44.6917 34.8995C45.0315 34.9845 45.3714 35.0057 45.69 35.0057C46.2423 35.0057 46.6459 34.8995 46.922 34.6871C47.1981 34.4747 47.3256 34.1985 47.3256 33.8374C47.3256 33.6038 47.2831 33.3914 47.1769 33.2427C47.0707 33.094 46.922 32.9453 46.6883 32.8178C46.4547 32.6904 46.1148 32.5417 45.6475 32.3718C44.989 32.1381 44.543 31.862 44.2456 31.5434C43.9695 31.2247 43.8208 30.7999 43.8208 30.2901C43.8208 29.7591 44.0332 29.313 44.4368 28.9944C44.8404 28.6758 45.3714 28.5059 46.0511 28.5059C46.7521 28.5059 47.3893 28.6333 47.9628 28.8882L47.7079 29.5892C47.1344 29.3555 46.5609 29.2281 46.0299 29.2281C45.605 29.2281 45.2652 29.313 45.0315 29.5042C44.7979 29.6954 44.6704 29.9503 44.6704 30.2689C44.6704 30.5025 44.7129 30.715 44.7979 30.8636C44.8828 31.0123 45.0315 31.161 45.2439 31.2885C45.4564 31.4159 45.775 31.5646 46.221 31.7133C46.9432 31.9682 47.453 32.2656 47.7292 32.5629C48.0478 32.9028 48.1752 33.2851 48.1752 33.7525Z" fill="black"/>
<path d="M50.9366 35.0691C51.0853 35.0691 51.2128 35.0691 51.3402 35.0479C51.4677 35.0267 51.5739 35.0054 51.6588 34.9842V35.6002C51.5739 35.6427 51.4464 35.6851 51.2765 35.7064C51.1066 35.7276 50.9579 35.7489 50.8304 35.7489C49.8109 35.7489 49.3011 35.2178 49.3011 34.1558V31.0333H48.5576V30.651L49.3011 30.3111L49.6409 29.1853H50.1082V30.3961H51.6376V31.0121H50.1082V34.0708C50.1082 34.3894 50.1932 34.6231 50.3419 34.793C50.4693 34.9842 50.6817 35.0691 50.9366 35.0691Z" fill="black"/>
<path d="M56.9691 32.9877C56.9691 33.8373 56.7567 34.5171 56.3319 34.9844C55.9071 35.4729 55.3123 35.7066 54.5476 35.7066C54.0803 35.7066 53.6555 35.6004 53.2944 35.3667C52.9333 35.1543 52.6572 34.8357 52.4447 34.4109C52.2536 34.0073 52.1474 33.5187 52.1474 32.9664C52.1474 32.1168 52.3598 31.4371 52.7846 30.9698C53.2094 30.5025 53.8042 30.2476 54.5689 30.2476C55.3123 30.2476 55.8858 30.4812 56.3107 30.9698C56.7567 31.5008 56.9691 32.1593 56.9691 32.9877ZM52.9758 32.9877C52.9758 33.6674 53.1032 34.1772 53.3794 34.5171C53.6555 34.8782 54.0378 35.0481 54.5689 35.0481C55.0787 35.0481 55.4823 34.8782 55.7584 34.5171C56.0345 34.1772 56.162 33.6674 56.162 32.9877C56.162 32.3292 56.0345 31.8194 55.7584 31.4796C55.4823 31.1397 55.0999 30.9698 54.5689 30.9698C54.0591 30.9698 53.6555 31.1397 53.4006 31.4796C53.1245 31.8194 52.9758 32.3292 52.9758 32.9877Z" fill="black"/>
<path d="M60.5164 30.29C60.7501 30.29 60.9625 30.3113 61.1324 30.3538L61.0262 31.0972C60.8138 31.0547 60.6226 31.0335 60.4527 31.0335C60.0279 31.0335 59.6668 31.2034 59.3694 31.5433C59.072 31.8831 58.9233 32.308 58.9233 32.839V35.6428H58.1374V30.3962H58.7959L58.8808 31.3733H58.9233C59.1145 31.0335 59.3481 30.7786 59.6243 30.5874C59.8792 30.375 60.1766 30.29 60.5164 30.29Z" fill="black"/>
<path d="M65.1046 35.6216L64.9559 34.8782H64.9134C64.6585 35.1968 64.3824 35.4304 64.1275 35.5366C63.8726 35.6428 63.554 35.7066 63.1504 35.7066C62.6406 35.7066 62.2158 35.5791 61.9396 35.303C61.6422 35.0268 61.4936 34.6445 61.4936 34.156C61.4936 33.0939 62.3432 32.5416 64.0425 32.4991L64.9346 32.4779V32.1593C64.9346 31.7557 64.8497 31.4371 64.6798 31.2459C64.5098 31.0547 64.2124 30.9485 63.8301 30.9485C63.384 30.9485 62.8955 31.076 62.3432 31.3521L62.1096 30.7361C62.3645 30.5874 62.6406 30.4812 62.9592 30.3962C63.2566 30.3113 63.5752 30.2688 63.8938 30.2688C64.5098 30.2688 64.9771 30.4175 65.2745 30.6936C65.5719 30.9698 65.7206 31.4158 65.7206 32.0318V35.6004H65.1046V35.6216ZM63.2991 35.0693C63.7876 35.0693 64.1912 34.9419 64.4673 34.6657C64.7435 34.3896 64.8922 34.0073 64.8922 33.5187V33.0514L64.1062 33.0939C63.469 33.1151 63.0229 33.2213 62.7468 33.3913C62.4707 33.5612 62.322 33.8373 62.322 34.1984C62.322 34.4958 62.4069 34.7082 62.5769 34.8569C62.7468 34.9844 63.0017 35.0693 63.2991 35.0693Z" fill="black"/>
<path d="M71.3707 30.375V30.8848L70.3936 30.991C70.4786 31.0972 70.5636 31.2459 70.6273 31.4371C70.691 31.607 70.7335 31.8194 70.7335 32.0531C70.7335 32.5629 70.5636 32.9664 70.2025 33.2851C69.8414 33.5824 69.3741 33.7524 68.7581 33.7524C68.6094 33.7524 68.4607 33.7311 68.312 33.7099C67.9721 33.8798 67.8022 34.1135 67.8022 34.3896C67.8022 34.5383 67.8659 34.6445 67.9721 34.7082C68.0996 34.772 68.2907 34.8144 68.5881 34.8144H69.5227C70.0963 34.8144 70.5211 34.9419 70.8397 35.1755C71.1583 35.4092 71.2858 35.7703 71.2858 36.2164C71.2858 36.7899 71.0521 37.2359 70.5848 37.5333C70.1175 37.8307 69.4378 37.9794 68.5456 37.9794C67.8659 37.9794 67.3349 37.8519 66.9525 37.597C66.5914 37.3421 66.4003 36.981 66.4003 36.5137C66.4003 36.1951 66.5065 35.919 66.6977 35.6853C66.8888 35.4517 67.1862 35.303 67.5685 35.218C67.4411 35.1543 67.3136 35.0693 67.2287 34.9419C67.1437 34.8144 67.1012 34.6657 67.1012 34.4958C67.1012 34.3046 67.1437 34.1347 67.2499 33.986C67.3561 33.8373 67.5048 33.7099 67.7385 33.5612C67.4623 33.455 67.2499 33.2638 67.08 32.9877C66.9101 32.7115 66.8251 32.4142 66.8251 32.0743C66.8251 31.5008 66.995 31.0547 67.3349 30.7573C67.6748 30.4387 68.1633 30.29 68.8005 30.29C69.0767 30.29 69.3316 30.3325 69.544 30.3962H71.3707V30.375ZM67.1862 36.4925C67.1862 36.7686 67.3136 36.981 67.5473 37.1297C67.781 37.2784 68.1208 37.3421 68.5669 37.3421C69.2254 37.3421 69.7352 37.2359 70.0538 37.0448C70.3724 36.8536 70.5423 36.5775 70.5423 36.2376C70.5423 35.9615 70.4574 35.749 70.2874 35.6428C70.1175 35.5366 69.7776 35.4729 69.2891 35.4729H68.3332C67.9721 35.4729 67.696 35.5579 67.4836 35.7278C67.2924 35.9402 67.1862 36.1739 67.1862 36.4925ZM67.611 32.0531C67.611 32.4142 67.7172 32.6903 67.9296 32.8815C68.1421 33.0726 68.4182 33.1576 68.8005 33.1576C69.5652 33.1576 69.9688 32.7753 69.9688 32.0318C69.9688 31.2459 69.5865 30.8423 68.8005 30.8423C68.4182 30.8423 68.1421 30.9485 67.9296 31.1397C67.7172 31.3733 67.611 31.6707 67.611 32.0531Z" fill="black"/>
<path d="M74.4083 35.7066C73.6436 35.7066 73.0276 35.4729 72.5815 35.0056C72.1354 34.5383 71.9018 33.8798 71.9018 33.0302C71.9018 32.1805 72.1142 31.522 72.5178 31.0122C72.9426 30.5237 73.4949 30.2688 74.1959 30.2688C74.8543 30.2688 75.3641 30.4812 75.7465 30.906C76.1288 31.3309 76.32 31.9044 76.32 32.6053V33.1151H72.709C72.7302 33.7311 72.8789 34.1984 73.1763 34.5171C73.4736 34.8357 73.8772 35.0056 74.4295 35.0056C75.003 35.0056 75.5553 34.8782 76.1076 34.6445V35.3455C75.8314 35.4729 75.5553 35.5579 75.3216 35.6004C75.0667 35.6853 74.7694 35.7066 74.4083 35.7066ZM74.1959 30.9485C73.771 30.9485 73.4312 31.076 73.1975 31.3521C72.9426 31.6282 72.7939 32.0106 72.7514 32.4991H75.4916C75.4916 31.9893 75.3854 31.607 75.1517 31.3521C74.9181 31.076 74.5994 30.9485 74.1959 30.9485Z" fill="black"/>
<path d="M92.9944 33.7525C92.9944 34.3685 92.7819 34.857 92.3146 35.1969C91.8686 35.5367 91.2526 35.7067 90.4879 35.7067C89.6595 35.7067 89.0222 35.6004 88.5762 35.388V34.6021C88.8735 34.7296 89.1709 34.8145 89.5108 34.8995C89.8506 34.9632 90.1905 35.0057 90.5091 35.0057C91.0614 35.0057 91.465 34.8995 91.7411 34.6871C92.0173 34.4747 92.1447 34.1985 92.1447 33.8374C92.1447 33.6038 92.1022 33.3914 91.996 33.2427C91.8898 33.094 91.7411 32.9453 91.5075 32.8178C91.2738 32.6904 90.934 32.5417 90.4666 32.3718C89.8082 32.1381 89.3621 31.862 89.0647 31.5434C88.7886 31.2247 88.6399 30.7999 88.6399 30.2901C88.6399 29.7591 88.8523 29.313 89.2559 28.9944C89.6595 28.6758 90.1905 28.5059 90.8702 28.5059C91.5712 28.5059 92.2084 28.6333 92.7819 28.8882L92.527 29.5892C91.9535 29.3555 91.38 29.2281 90.849 29.2281C90.4242 29.2281 90.0843 29.313 89.8506 29.5042C89.617 29.6954 89.4895 29.9503 89.4895 30.2689C89.4895 30.5025 89.532 30.715 89.617 30.8636C89.702 31.0123 89.8506 31.161 90.0631 31.2885C90.2755 31.4159 90.5941 31.5646 91.0402 31.7133C91.7624 31.9682 92.2722 32.2656 92.5483 32.5629C92.8669 32.9028 92.9944 33.2851 92.9944 33.7525Z" fill="black"/>
<path d="M98.5808 32.9877C98.5808 33.8373 98.3684 34.5171 97.9436 34.9844C97.5188 35.4729 96.924 35.7066 96.1593 35.7066C95.692 35.7066 95.2672 35.6004 94.9061 35.3667C94.545 35.1543 94.2689 34.8357 94.0564 34.4109C93.8653 34.0073 93.7591 33.5187 93.7591 32.9664C93.7591 32.1168 93.9715 31.4371 94.3963 30.9698C94.8211 30.5025 95.4159 30.2476 96.1806 30.2476C96.924 30.2476 97.4975 30.4812 97.9224 30.9698C98.3684 31.5008 98.5808 32.1593 98.5808 32.9877ZM94.5875 32.9877C94.5875 33.6674 94.7149 34.1772 94.9911 34.5171C95.2672 34.8782 95.6495 35.0481 96.1806 35.0481C96.6904 35.0481 97.0939 34.8782 97.3701 34.5171C97.6462 34.1772 97.7737 33.6674 97.7737 32.9877C97.7737 32.3292 97.6462 31.8194 97.3701 31.4796C97.0939 31.1397 96.7116 30.9698 96.1806 30.9698C95.6708 30.9698 95.2672 31.1397 95.0123 31.4796C94.7362 31.8194 94.5875 32.3292 94.5875 32.9877Z" fill="black"/>
<path d="M100.535 35.6217H99.7491V28.1873H100.535V35.6217Z" fill="black"/>
<path d="M102.702 30.375V33.7736C102.702 34.1984 102.808 34.5171 102.999 34.7295C103.19 34.9419 103.488 35.0481 103.912 35.0481C104.465 35.0481 104.868 34.8994 105.123 34.602C105.378 34.3046 105.505 33.8161 105.505 33.1364V30.375H106.291V35.6216H105.633L105.527 34.9206H105.484C105.314 35.1755 105.102 35.3667 104.805 35.5154C104.507 35.6428 104.189 35.7278 103.827 35.7278C103.19 35.7278 102.723 35.5791 102.404 35.2817C102.086 34.9844 101.937 34.4958 101.937 33.8373V30.4175H102.702V30.375Z" fill="black"/>
<path d="M109.414 35.0691C109.563 35.0691 109.69 35.0691 109.817 35.0479C109.945 35.0267 110.051 35.0054 110.136 34.9842V35.6002C110.051 35.6427 109.924 35.6851 109.754 35.7064C109.584 35.7276 109.435 35.7489 109.308 35.7489C108.288 35.7489 107.778 35.2178 107.778 34.1558V31.0333H107.035V30.651L107.778 30.3111L108.118 29.1853H108.585V30.3961H110.115V31.0121H108.585V34.0708C108.585 34.3894 108.67 34.6231 108.819 34.793C108.947 34.9842 109.159 35.0691 109.414 35.0691Z" fill="black"/>
<path d="M110.88 28.9519C110.88 28.7608 110.922 28.6333 111.007 28.5483C111.092 28.4634 111.198 28.4209 111.347 28.4209C111.474 28.4209 111.58 28.4634 111.687 28.5483C111.793 28.6333 111.835 28.7608 111.835 28.9519C111.835 29.1219 111.793 29.2706 111.687 29.3555C111.602 29.4405 111.474 29.483 111.347 29.483C111.219 29.483 111.092 29.4405 111.007 29.3555C110.922 29.2706 110.88 29.1431 110.88 28.9519ZM111.729 35.6217H110.943V30.3751H111.729V35.6217Z" fill="black"/>
<path d="M117.698 32.9877C117.698 33.8373 117.486 34.5171 117.061 34.9844C116.636 35.4729 116.041 35.7066 115.276 35.7066C114.809 35.7066 114.384 35.6004 114.023 35.3667C113.662 35.1543 113.386 34.8357 113.174 34.4109C112.982 34.0073 112.876 33.5187 112.876 32.9664C112.876 32.1168 113.089 31.4371 113.513 30.9698C113.938 30.5025 114.533 30.2476 115.298 30.2476C116.041 30.2476 116.615 30.4812 117.04 30.9698C117.486 31.5008 117.698 32.1593 117.698 32.9877ZM113.705 32.9877C113.705 33.6674 113.832 34.1772 114.108 34.5171C114.384 34.8782 114.767 35.0481 115.298 35.0481C115.808 35.0481 116.211 34.8782 116.487 34.5171C116.763 34.1772 116.891 33.6674 116.891 32.9877C116.891 32.3292 116.763 31.8194 116.487 31.4796C116.211 31.1397 115.829 30.9698 115.298 30.9698C114.788 30.9698 114.384 31.1397 114.129 31.4796C113.832 31.8194 113.705 32.3292 113.705 32.9877Z" fill="black"/>
<path d="M122.435 35.6216V32.223C122.435 31.7982 122.329 31.4796 122.137 31.2671C121.946 31.0547 121.649 30.9485 121.224 30.9485C120.672 30.9485 120.268 31.0972 120.013 31.3946C119.758 31.692 119.631 32.1805 119.631 32.8602V35.6004H118.845V30.3538H119.482L119.61 31.076H119.652C119.822 30.8211 120.035 30.6087 120.332 30.4812C120.629 30.3325 120.948 30.2688 121.309 30.2688C121.946 30.2688 122.414 30.4175 122.732 30.7149C123.051 31.0122 123.221 31.5008 123.221 32.1805V35.6004H122.435V35.6216Z" fill="black"/>
<path d="M127.979 34.1984C127.979 34.687 127.788 35.0693 127.426 35.3242C127.065 35.5791 126.556 35.7278 125.897 35.7278C125.196 35.7278 124.665 35.6216 124.262 35.3879V34.6445C124.516 34.772 124.793 34.8782 125.069 34.9419C125.366 35.0056 125.642 35.0481 125.897 35.0481C126.322 35.0481 126.641 34.9844 126.853 34.8569C127.065 34.7295 127.193 34.5171 127.193 34.2622C127.193 34.0497 127.108 33.8798 126.938 33.7311C126.768 33.5824 126.407 33.4125 125.897 33.2213C125.409 33.0302 125.069 32.8815 124.856 32.754C124.644 32.6266 124.495 32.4567 124.389 32.2867C124.283 32.1168 124.24 31.9044 124.24 31.6707C124.24 31.2459 124.41 30.906 124.771 30.6511C125.111 30.3962 125.6 30.29 126.194 30.29C126.768 30.29 127.32 30.3962 127.851 30.6299L127.575 31.2671C127.044 31.0547 126.577 30.9485 126.152 30.9485C125.77 30.9485 125.494 31.0122 125.302 31.1185C125.111 31.2459 125.026 31.3946 125.026 31.607C125.026 31.7557 125.069 31.8619 125.132 31.9681C125.196 32.0743 125.324 32.1593 125.472 32.2442C125.621 32.3292 125.94 32.4567 126.386 32.6266C127.002 32.8602 127.426 33.0726 127.639 33.3063C127.873 33.5612 127.979 33.8373 127.979 34.1984Z" fill="black"/>
<path d="M37.3422 28.6121H38.0219V35.6217H37.3422V28.6121Z" fill="black"/>
<path d="M82.1401 28.6121H82.8198V35.6217H82.1401V28.6121Z" fill="black"/>
<path d="M0 0H8.24162C11.4491 0 13.8493 0.467308 15.3999 1.42317C16.9505 2.37902 17.7365 3.86591 17.7365 5.88384C17.7365 7.2008 17.3966 8.34783 16.7169 9.28244C16.0372 10.2171 15.145 10.8331 14.0405 11.088V11.2579C15.5061 11.6402 16.5682 12.2987 17.2267 13.1908C17.8852 14.1042 18.2038 15.2725 18.2038 16.7169C18.2038 18.8623 17.3966 20.5616 15.7823 21.7936C14.1679 23.0256 11.9801 23.6416 9.19748 23.6416H0V0ZM6.39363 9.07003H8.32658C9.23996 9.07003 9.96216 8.87886 10.4507 8.49652C10.9605 8.11417 11.1942 7.5619 11.1942 6.81845C11.1942 5.50149 10.1958 4.82177 8.1779 4.82177H6.37239V9.07003H6.39363ZM6.39363 13.7431V18.7136H8.6452C10.6419 18.7136 11.6402 17.8639 11.6402 16.1859C11.6402 15.3999 11.3641 14.8052 10.8331 14.3804C10.302 13.9555 9.5161 13.7431 8.51776 13.7431H6.39363Z" fill="black"/>
<path d="M60.8563 16.2921C60.8563 17.7152 60.4739 18.9685 59.7305 20.073C58.9871 21.1776 57.9038 22.0272 56.5231 22.6432C55.1211 23.2592 53.4856 23.5566 51.5951 23.5566C50.0232 23.5566 48.7063 23.4504 47.623 23.238C46.5609 23.0256 45.4351 22.6432 44.2881 22.1122V16.5894C45.4988 17.1842 46.7733 17.6727 48.0903 18.0126C49.4072 18.3525 50.618 18.5224 51.7225 18.5224C52.6784 18.5224 53.3581 18.3737 53.8042 18.0551C54.2503 17.7365 54.4627 17.3329 54.4627 16.8231C54.4627 16.5045 54.3777 16.2283 54.1865 15.9947C54.0166 15.761 53.7192 15.5274 53.3369 15.2937C52.9333 15.0601 51.8925 14.5715 50.1932 13.8281C48.6426 13.1484 47.4955 12.4899 46.7308 11.8526C45.9661 11.2154 45.3926 10.4932 45.0103 9.66478C44.6279 8.83637 44.458 7.85927 44.458 6.73349C44.458 4.6306 45.2439 2.99502 46.837 1.80551C48.4301 0.637237 50.5967 0.0424805 53.3794 0.0424805C55.8221 0.0424805 58.3286 0.594754 60.8563 1.67806L58.9021 6.43611C56.693 5.45901 54.7813 4.97046 53.1669 4.97046C52.3385 4.97046 51.7225 5.11915 51.3614 5.39529C50.9791 5.67142 50.7879 6.03252 50.7879 6.43611C50.7879 6.88218 51.0216 7.28576 51.5101 7.64686C51.9987 8.00796 53.2944 8.6452 55.4185 9.57982C57.4577 10.472 58.8809 11.4066 59.6668 12.4262C60.4527 13.467 60.8563 14.7415 60.8563 16.2921Z" fill="black"/>
<path d="M73.5586 23.6416H67.165V5.22536H61.3873V0H79.2937V5.22536H73.5586V23.6416Z" fill="black"/>
<path d="M102.872 11.8102C102.872 15.6761 101.894 18.6074 99.9403 20.6253C97.9861 22.6432 95.1397 23.6416 91.38 23.6416C87.6628 23.6416 84.8377 22.622 82.841 20.604C80.8656 18.5861 79.8672 15.6336 79.8672 11.7677C79.8672 7.94424 80.8443 5.03419 82.8198 3.01626C84.7952 0.99834 87.6416 0 91.4013 0C95.161 0 98.0073 0.99834 99.9615 2.99502C101.916 5.01294 102.872 7.94424 102.872 11.8102ZM86.6007 11.8102C86.6007 16.2496 88.1938 18.4799 91.38 18.4799C92.9944 18.4799 94.2051 17.9489 94.9698 16.8656C95.7557 15.7823 96.1381 14.1042 96.1381 11.8314C96.1381 9.53734 95.7345 7.83804 94.9486 6.75473C94.1626 5.65018 92.9731 5.11915 91.4013 5.11915C88.2151 5.09791 86.6007 7.32824 86.6007 11.8102Z" fill="black"/>
<path d="M128 23.6416H119.631L110.986 6.98838H110.837C111.049 9.60106 111.134 11.5977 111.134 12.9784V23.6416H105.484V0H113.832L122.435 16.4408H122.541C122.392 14.0617 122.307 12.15 122.307 10.7056V0H128V23.6416Z" fill="black"/>
<path d="M27.4437 11.8525H27.38C27.5499 11.8738 27.5924 11.8738 27.5924 11.8738C27.5924 11.8738 27.5924 11.8738 27.6349 11.8525H27.6774C27.6349 11.8525 27.5712 11.8525 27.5499 11.8525C27.5287 11.8738 27.4437 11.8525 27.4437 11.8525Z" fill="black"/>
<path d="M26.7003 0.700963C26.7003 0.722204 26.6791 0.785928 26.6791 0.785928C26.6791 0.785928 26.6791 0.82841 26.6791 0.870893C26.6791 0.913375 26.6578 0.977099 26.6578 0.977099L26.6366 1.04082L26.6153 1.08331L26.5516 1.23199L24.8098 6.98838L24.7886 7.09459L24.8098 7.13707L24.8948 7.2008L24.9585 7.26452L25.001 7.39197V7.49818L24.9798 7.58314L24.916 7.64686L24.8948 7.71059L24.8735 7.75307V7.79555L24.8948 7.85928L24.916 7.90176V7.96548V8.02921L24.8948 8.07169L24.8735 8.11417L24.8098 8.15666L24.7036 8.26286L24.6824 8.2841L24.7036 8.36907L24.7249 8.41155L24.7673 8.39031L24.8311 8.36907L24.916 8.32658L24.9585 8.2841L25.086 8.19914H25.1709L25.2559 8.1779H25.3621H25.4683L25.5957 8.13541V8.09293V7.96548L25.8931 6.81845L26.0418 6.3299L26.3392 5.88384L26.6578 5.62894L26.9127 5.50149C26.9127 5.50149 27.2526 5.43777 27.2951 5.43777C27.3163 5.43777 27.4862 5.39529 27.4862 5.39529L27.6349 5.3528L27.7199 5.31032L27.8048 5.26784L28.081 4.82177L28.1659 4.77929L28.2084 4.75805V4.69432L28.1659 4.65184L28.1235 4.60936L28.0173 4.50315L27.9323 4.39695L27.911 4.33322L27.8898 4.29074L27.8686 4.18453L27.8261 3.82343L27.8473 3.56854L27.911 3.2924L28.0385 2.97378L28.1235 2.76137L28.2934 2.52771L28.3996 2.37902L28.5695 2.27282L28.7819 2.20909L28.9944 2.16661L29.228 2.12413L29.3767 2.10289H29.5679L29.759 2.14537L29.9502 2.20909L30.1626 2.3153L30.3963 2.48523L30.8423 2.80385L31.0123 2.99502L31.076 3.12247L31.1185 3.20743C31.1185 3.20743 31.1185 3.27116 31.1185 3.2924C31.1185 3.31364 31.1397 3.35612 31.1397 3.35612L31.1822 3.41985L31.2247 3.46233L31.2459 3.50481L31.5008 3.67474C31.5008 3.67474 31.607 3.73847 31.6495 3.75971C31.692 3.78095 31.7132 3.75971 31.7557 3.78095C31.7982 3.80219 31.8194 3.80219 31.8407 3.82343C31.8619 3.82343 31.8832 3.82343 31.9257 3.84467C31.9681 3.86591 31.9469 3.86591 31.9894 3.86591C32.0106 3.88716 32.0106 3.86591 32.0531 3.88716C32.0956 3.9084 32.1381 3.9084 32.1381 3.9084C32.1381 3.9084 32.1805 3.92964 32.2018 3.95088C32.223 3.97212 32.223 3.97212 32.2443 3.99336C32.2655 4.0146 32.2655 4.0146 32.2655 4.0146L32.2868 4.07833V4.12081L32.2655 4.16329L32.2443 4.20577H32.2018L32.0531 4.22702C32.0531 4.22702 31.9469 4.20577 31.9257 4.20577C31.9044 4.20577 31.8619 4.20577 31.8407 4.20577C31.8194 4.20577 31.8194 4.20577 31.7982 4.24826C31.777 4.2695 31.7345 4.33322 31.7345 4.33322L31.6283 4.50315L31.5858 4.58812C31.5858 4.58812 31.5646 4.60936 31.5646 4.6306C31.5433 4.65184 31.5221 4.71557 31.5221 4.71557L31.5008 4.80053C31.5008 4.80053 31.4796 4.82177 31.4583 4.86425C31.4371 4.8855 31.4583 4.8855 31.4371 4.90674C31.4159 4.94922 31.3734 5.01294 31.3734 5.01294L31.3097 5.07667L31.2884 5.09791V5.14039L31.3309 5.18287C31.3309 5.18287 31.3309 5.20412 31.3734 5.20412C31.4159 5.20412 31.4159 5.20412 31.4159 5.20412L31.4583 5.22536L31.5646 5.26784L31.607 5.31032L31.6708 5.3528L32.3505 5.82011L32.8178 6.3299L33.1152 6.71225L33.4125 7.13707L33.4975 7.28576C33.4975 7.28576 33.54 7.37073 33.54 7.39197C33.54 7.41321 33.5825 7.51942 33.5825 7.51942L33.5612 8.11417V8.34783L33.5187 8.58148C33.5187 8.58148 33.5187 8.6452 33.5187 8.73017C33.5187 8.79389 33.5187 8.85762 33.5187 8.9001C33.54 8.94258 33.54 8.96382 33.5612 9.02755C33.5825 9.07003 33.5825 9.13375 33.5825 9.19748C33.6037 9.23996 33.6037 9.28244 33.6037 9.34617C33.6037 9.40989 33.625 9.43113 33.625 9.47361C33.625 9.53734 33.6462 9.57982 33.6674 9.68603C33.6674 9.77099 33.6887 9.94092 33.6887 9.94092L33.8161 10.8331L33.8586 11.1517L33.8798 11.4066C33.8798 11.4066 33.9011 11.5977 33.9011 11.619C33.9011 11.6402 33.9011 11.619 33.9011 11.7039C33.9223 11.7889 33.9436 11.8526 33.9436 11.8526C33.9436 11.8526 33.9861 11.9164 34.0073 11.9588C34.0285 11.9801 34.0498 12.0013 34.0923 12.0226C34.1347 12.0651 34.2834 12.235 34.2834 12.235C34.2834 12.235 34.3684 12.3837 34.3684 12.4049C34.3684 12.4262 34.4109 12.5111 34.4109 12.5111L34.4958 12.7873L34.6021 12.9572L34.687 13.0422L34.8569 13.297L34.9419 13.4245L35.4305 13.9555L35.834 14.3379L36.1527 14.699L36.4288 15.0176L36.8536 15.5911L37.1298 16.0797L37.4271 16.6319L37.682 17.163L37.9369 17.694L38.1281 18.0976L38.2131 18.3525L38.2343 18.5224C38.2343 18.5224 38.2556 18.6074 38.2556 18.6286C38.2556 18.6499 38.2768 18.7136 38.2768 18.7348L38.3618 18.8623L38.6379 19.3296C38.6379 19.3296 38.6591 19.3721 38.6804 19.3933C38.6804 19.4145 38.7229 19.4783 38.7229 19.4783L38.7441 19.5207L38.7866 19.5632C38.7866 19.5632 38.8291 19.6057 38.8291 19.627C38.8503 19.6482 38.8928 19.7119 38.8928 19.7119L38.9778 19.9456L38.999 20.0943C38.999 20.0943 38.999 20.1367 39.0202 20.1792C39.0202 20.2005 39.0415 20.2429 39.0415 20.2429L39.1052 20.3279L39.1689 20.3704L39.2114 20.4341L39.4451 20.8377L39.5088 20.9652C39.5938 20.8802 39.6787 20.8165 39.7637 20.7315C41.7179 18.7136 42.695 15.761 42.695 11.8739C42.695 7.96548 41.7179 5.01294 39.7849 3.01626C37.852 0.99834 34.9844 0 31.2247 0C29.5254 0 28.0385 0.212413 26.7003 0.637239C26.7003 0.65848 26.7003 0.679721 26.7003 0.700963Z" fill="black"/>
<path d="M24.7461 22.3245L24.7886 22.0696L25.001 21.5811L25.1922 21.135L25.2134 20.9014V20.6252L25.3621 20.4128L25.5745 20.0517L25.7657 19.6056L25.9356 19.1171L26.0843 18.756L26.3604 18.3949L26.5729 18.0763L26.7215 17.609L26.8915 16.908L27.0614 16.1858L27.2526 15.591L27.4013 15.1662L27.5712 14.7839L27.7836 14.359L28.1235 13.8705L28.4846 13.2333L28.697 12.7022L28.8032 12.4048V12.2774L28.7395 12.2137L28.5483 12.0862L28.4633 11.98L28.3996 11.9163L28.3146 11.8526H28.2297L27.6349 11.9375H27.465C27.465 11.9375 27.465 11.9375 27.4013 11.9375C27.3375 11.9375 27.3375 11.9375 27.3375 11.9375L27.3163 11.8951H27.2951C27.2951 11.8951 27.2951 11.8951 27.2738 11.8951C27.2526 11.8951 27.2526 11.8951 27.2526 11.8738L27.3375 11.8526L27.4225 11.7251V11.7039L27.2738 11.6826L27.1888 11.6614L27.0402 11.6402L26.934 11.6189L26.849 11.6402H26.7215L26.5941 11.5552L26.2542 11.364L25.6807 11.1091L25.1922 10.8967L24.6399 10.6843L24.2363 10.5993L24.0451 10.5569H23.8964L23.8327 10.5993L23.8115 10.7905L23.7902 10.9604V11.0242C23.7902 11.0242 23.6203 11.0454 23.5991 11.0454C23.5778 11.0454 23.2592 11.0029 23.2592 11.0029L23.153 10.9392C23.153 10.9392 23.1318 10.8542 23.153 10.833C23.1742 10.8118 23.2592 10.5356 23.2592 10.5356L23.3017 10.4082L23.2167 10.302L23.0256 10.1745L23.0043 9.85589L23.0468 9.7072L23.1105 9.43107L23.0893 9.3461L23.0256 9.26114L22.9831 9.21865V9.13369L23.0256 9.04872L23.238 8.81507V8.6239L23.3017 8.51769L23.3442 8.34776L23.3654 8.19907L23.4291 8.07162L23.4716 8.02914L23.5778 7.88045V7.73176V7.56183L23.7053 7.49811L23.769 7.37066L23.854 7.11577L24.8735 1.72048L24.9585 1.31689C24.0664 1.7842 23.3017 2.33648 22.622 3.03744C20.6678 5.0766 19.6907 8.0079 19.6907 11.8526C19.6907 15.7397 20.6678 18.6923 22.6645 20.7314C23.2592 21.3687 23.9814 21.8997 24.7461 22.3245Z" fill="black"/>
<path d="M26.9977 11.5764C27.0401 11.5764 27.0401 11.5764 27.0826 11.5764C27.1039 11.5764 27.1039 11.5764 27.1463 11.5552C27.1676 11.5552 27.2101 11.5339 27.2101 11.5339L27.0401 11.5552L26.9764 11.5764C26.9764 11.5764 26.9764 11.5764 26.9977 11.5764Z" fill="black"/>
<path d="M37.6396 22.1971L37.4909 22.0272L37.3847 21.8572L37.321 21.6661L37.2997 21.4112L37.1935 21.2412L36.8112 20.5615L36.5775 20.1792L36.4076 20.0092L36.3439 19.903V19.6906V19.6481V19.5844L36.3014 19.5207L36.2377 19.4994L36.1527 19.457L36.0252 19.3508L34.9207 18.2887L34.4534 17.8639L33.8374 17.4178L33.0939 16.823L32.3293 16.377L32.0531 16.207L31.862 16.0371L31.8195 15.9734C31.8195 15.9734 31.7345 16.1008 31.7133 16.1221C31.692 16.1221 31.6283 16.1646 31.6283 16.1646L31.5646 16.1858L31.4584 16.207L31.3734 16.2283L31.3309 16.2708V16.377V16.4832V16.5894L31.2884 16.7381C31.2884 16.7381 31.2035 16.9505 31.1822 16.9717C31.161 16.993 31.0548 17.1417 31.0123 17.1841C30.9911 17.2266 30.014 18.4586 30.014 18.4586L29.6741 18.9259L29.5467 19.1596L29.3555 19.3932L29.1218 19.5419L28.8669 19.903L28.7182 20.073L28.5908 20.3279C28.5908 20.3279 28.5696 20.4765 28.5696 20.4978C28.5483 20.519 28.5058 20.5615 28.4846 20.604C28.4633 20.6465 28.4209 20.689 28.3996 20.7527C28.3784 20.8164 28.3571 20.8376 28.3359 20.8801C28.3147 20.9014 28.2297 20.9863 28.2297 20.9863L28.0598 21.0925L27.8474 21.3899L27.7624 21.6023L27.6774 21.836L27.55 22.1971L27.465 22.452L27.2101 22.8131L26.9765 22.9618L26.6578 23.2167C27.996 23.6415 29.5042 23.8751 31.2035 23.8751C33.8374 23.8751 36.0252 23.3654 37.767 22.3883L37.6396 22.1971Z" fill="black"/>
</svg>
