<svg width="196" height="40" viewBox="0 0 196 40" fill="none" xmlns="http://www.w3.org/2000/svg">
<rect width="196" height="40" fill="white"/>
<path d="M55.3984 35.4555C55.3984 34.0225 56.4508 32.8352 57.9485 32.8352C58.8795 32.8352 59.4057 33.1627 59.8914 33.6131L59.3247 34.2682C58.9199 33.8997 58.5152 33.654 57.9485 33.654C57.0175 33.654 56.3294 34.4319 56.3294 35.4145C56.3294 36.3971 57.0175 37.175 57.9485 37.175C58.5556 37.175 58.9604 36.9294 59.3652 36.52L59.9319 37.0931C59.4057 37.6254 58.839 37.9939 57.908 37.9939C56.4508 38.0348 55.3984 36.8884 55.3984 35.4555Z" fill="black"/>
<path d="M61.1055 32.917H61.996V35.005H64.3841V32.917H65.2341V37.9528H64.3841V35.8238H61.996V37.9528H61.1055V32.917Z" fill="black"/>
<path d="M68.5529 32.8762H69.3625L71.5482 37.953H70.6173L70.1316 36.7247H67.7839L67.2577 37.953H66.3672L68.5529 32.8762ZM69.8077 35.9468L68.9577 33.9407L68.1077 35.9468H69.8077Z" fill="black"/>
<path d="M72.6816 32.917H73.4912L76.1222 36.397V32.917H76.9722V37.9528H76.2436L73.5317 34.35V37.9528H72.6816V32.917Z" fill="black"/>
<path d="M78.5508 32.917H79.3603L81.9913 36.397V32.917H82.8818V37.9528H82.1532L79.4008 34.35V37.9528H78.5508V32.917Z" fill="black"/>
<path d="M84.4199 32.917H88.1033V33.6949H85.2699V35.005H87.7795V35.7829H85.2699V37.134H88.1438V37.9528H84.4199V32.917Z" fill="black"/>
<path d="M89.4395 32.917H90.3299V37.134H92.9205V37.9528H89.4395V32.917Z" fill="black"/>
<path d="M96.1582 37.216L96.6844 36.6019C97.1701 37.0113 97.6559 37.257 98.263 37.257C98.7892 37.257 99.1535 37.0113 99.1535 36.6429C99.1535 36.2744 98.9511 36.1106 98.0201 35.865C96.9677 35.6193 96.3606 35.2918 96.3606 34.3501C96.3606 33.4903 97.0892 32.8762 98.0606 32.8762C98.7892 32.8762 99.3559 33.0809 99.8821 33.4903L99.3964 34.1454C98.9511 33.8179 98.5059 33.6132 98.0606 33.6132C97.5344 33.6132 97.2511 33.8588 97.2511 34.2273C97.2511 34.5958 97.4939 34.8005 98.4249 35.0052C99.4773 35.2508 100.004 35.6603 100.004 36.4791C100.004 37.4207 99.2749 37.9939 98.2225 37.9939C97.4939 37.9939 96.7654 37.7483 96.1582 37.216Z" fill="black"/>
<path d="M101.096 35.4555C101.096 34.0225 102.189 32.8352 103.686 32.8352C105.224 32.8352 106.277 34.0225 106.277 35.4145C106.277 36.8065 105.184 37.9939 103.686 37.9939C102.148 38.0348 101.096 36.8475 101.096 35.4555ZM105.386 35.4555C105.386 34.4729 104.698 33.654 103.686 33.654C102.715 33.654 102.027 34.4319 102.027 35.4145C102.027 36.3971 102.715 37.175 103.727 37.175C104.698 37.216 105.386 36.3971 105.386 35.4555Z" fill="black"/>
<path d="M107.613 32.917H108.504V37.134H111.094V37.9528H107.613V32.917Z" fill="black"/>
<path d="M112.188 35.8238V32.917H113.078V35.7829C113.078 36.7246 113.564 37.2159 114.333 37.2159C115.102 37.2159 115.588 36.7655 115.588 35.8238V32.917H116.478V35.7829C116.478 37.2977 115.628 38.0347 114.333 38.0347C113.038 37.9938 112.188 37.2568 112.188 35.8238Z" fill="black"/>
<path d="M119.149 33.7358H117.57V32.917H121.578V33.7358H119.999V37.9528H119.149V33.7358Z" fill="black"/>
<path d="M123.723 32.917H122.832V37.9528H123.723V32.917Z" fill="black"/>
<path d="M125.1 35.4555C125.1 34.0225 126.192 32.8352 127.69 32.8352C129.228 32.8352 130.281 34.0225 130.281 35.4145C130.281 36.8065 129.188 37.9939 127.69 37.9939C126.152 38.0348 125.1 36.8475 125.1 35.4555ZM129.35 35.4555C129.35 34.4729 128.662 33.654 127.65 33.654C126.678 33.654 125.99 34.4319 125.99 35.4145C125.99 36.3971 126.678 37.175 127.69 37.175C128.662 37.216 129.35 36.3971 129.35 35.4555Z" fill="black"/>
<path d="M131.615 32.917H132.425L135.056 36.397V32.917H135.946V37.9528H135.177L132.465 34.35V37.9528H131.615V32.917Z" fill="black"/>
<path d="M137.162 37.216L137.688 36.6019C138.174 37.0113 138.66 37.257 139.267 37.257C139.793 37.257 140.157 37.0113 140.157 36.6429C140.157 36.2744 139.955 36.1106 139.024 35.865C137.972 35.6193 137.364 35.2918 137.364 34.3501C137.364 33.4903 138.053 32.8762 139.065 32.8762C139.793 32.8762 140.36 33.0809 140.886 33.4903L140.4 34.1454C139.955 33.8179 139.51 33.6132 139.065 33.6132C138.538 33.6132 138.255 33.8588 138.255 34.2273C138.255 34.5958 138.498 34.8005 139.429 35.0052C140.481 35.2508 141.007 35.6603 141.007 36.4791C141.007 37.4207 140.279 37.9939 139.226 37.9939C138.457 37.9939 137.729 37.7483 137.162 37.216Z" fill="black"/>
<path d="M114.211 13.3878L108.14 4.25781H101.744V28.0859H108.14V14.4523L114.13 23.746H114.211V13.3878Z" fill="black"/>
<path d="M45.6426 16.1311V16.0492C45.6426 9.13006 50.8641 3.68481 58.0286 3.68481C62.8453 3.68481 65.9216 5.7319 68.0264 8.59781L63.1287 12.4463C61.7929 10.7677 60.2548 9.6623 57.9881 9.6623C54.7094 9.6623 52.3618 12.5282 52.3618 16.0083V16.0901C52.3618 19.6521 54.669 22.4361 57.9881 22.4361C60.4572 22.4361 61.8739 21.2897 63.2906 19.5292L68.1883 23.0502C65.9621 26.1618 62.9668 28.4545 57.7857 28.4545C51.0665 28.4545 45.6426 23.2549 45.6426 16.1311Z" fill="black"/>
<path d="M71.0215 4.17603H77.5383V22.1904H88.9528V27.9631H71.0215V4.17603Z" fill="black"/>
<path d="M114.211 13.3878L120.121 4.25781H126.637V28.0859H120.242V14.4523L114.292 23.746H114.211V13.3878Z" fill="#00AB4E"/>
<path d="M129.714 4.17603H141.776C144.731 4.17603 146.836 4.91298 148.212 6.30499C149.143 7.28759 149.71 8.55678 149.71 10.1944V10.2354C149.71 12.9785 148.172 14.6161 146.067 15.5578C148.941 16.4995 150.722 18.1371 150.722 21.3715V21.4534C150.722 25.5476 147.443 28.0041 141.817 28.0041H129.674L129.714 4.17603ZM143.315 11.5046C143.315 10.1944 142.262 9.4575 140.36 9.4575H136.069V13.6335H140.157C142.141 13.6335 143.274 12.9375 143.274 11.5455V11.5046H143.315ZM141.048 18.3009H136.069V22.6817H141.129C143.153 22.6817 144.246 21.9038 144.246 20.5117V20.4299C144.246 19.1197 143.234 18.3009 141.048 18.3009Z" fill="black"/>
<path d="M92.1504 17.1136V28.045L98.7077 28.086V7.69702L98.6267 7.77891" fill="black"/>
<path d="M98.6267 4.3397L98.6672 4.25781H92.1504V13.6335L98.6267 4.3397Z" fill="black"/>
</svg>
