<svg xmlns="http://www.w3.org/2000/svg" xmlns:xlink="http://www.w3.org/1999/xlink" xmlns:serif="http://www.serif.com/" width="100%" height="100%" viewBox="0 0 5000 3959" xml:space="preserve" style="fill-rule:evenodd;clip-rule:evenodd;stroke-linejoin:round;stroke-miterlimit:2;"><g id="Layer-1" serif:id="Layer 1"><path d="M1206.48,3716.39l-0,-35.45l91.591,-0l0,83.833c-8.908,8.617 -21.8,16.196 -38.687,22.75c-16.896,6.558 -34,9.833 -51.321,9.833c-22.017,0 -41.204,-4.621 -57.567,-13.858c-16.37,-9.229 -28.662,-22.433 -36.883,-39.617c-8.233,-17.171 -12.35,-35.858 -12.35,-56.05c0,-21.921 4.592,-41.396 13.783,-58.429c9.184,-17.037 22.63,-30.092 40.325,-39.187c13.505,-6.992 30.296,-10.484 50.392,-10.484c26.133,0 46.542,5.488 61.233,16.438c14.68,10.954 24.13,26.108 28.342,45.433l-42.196,7.892c-2.979,-10.329 -8.546,-18.496 -16.721,-24.467c-8.195,-5.983 -18.404,-8.979 -30.658,-8.979c-18.567,-0 -33.325,5.892 -44.283,17.658c-10.954,11.767 -16.438,29.238 -16.438,52.392c0,24.987 5.55,43.712 16.654,56.212c11.105,12.484 25.65,18.725 43.634,18.725c8.908,0 17.833,-1.745 26.783,-5.237c8.938,-3.496 16.617,-7.733 23.033,-12.704l0,-26.704l-48.666,-0Z" style="fill:#000;fill-rule:nonzero;"></path><path d="M1335.84,3793.76l-0,-210.446l156.037,0l0,35.6l-113.558,0l-0,46.65l105.662,0l0,35.463l-105.662,-0l-0,57.283l117.567,-0l-0,35.45l-160.046,-0Z" style="fill:#000;fill-rule:nonzero;"></path><path d="M1530.92,3793.76l-0,-210.446l41.342,0l86.137,140.533l0,-140.533l39.471,0l-0,210.446l-42.625,-0l-84.838,-137.229l0,137.229l-39.487,-0Z" style="fill:#000;fill-rule:nonzero;"></path><path d="M1741.39,3793.76l-0,-210.446l156.037,0l0,35.6l-113.558,0l-0,46.65l105.662,0l0,35.463l-105.662,-0l-0,57.283l117.567,-0l-0,35.45l-160.046,-0Z" style="fill:#000;fill-rule:nonzero;"></path><path d="M1978.69,3672.32l31.442,0c20.383,0 33.113,-0.866 38.175,-2.583c5.079,-1.721 9.046,-4.688 11.917,-8.9c2.871,-4.213 4.308,-9.475 4.308,-15.788c0,-7.083 -1.883,-12.808 -5.662,-17.158c-3.792,-4.358 -9.125,-7.108 -16.009,-8.262c-3.45,-0.471 -13.783,-0.713 -31.008,-0.713l-33.163,0l0,53.404Zm-42.491,121.442l-0,-210.446l89.429,0c22.492,0 38.833,1.896 49.029,5.671c10.188,3.779 18.35,10.508 24.471,20.162c6.121,9.671 9.196,20.73 9.196,33.167c-0,15.788 -4.646,28.829 -13.934,39.121c-9.275,10.287 -23.158,16.762 -41.629,19.442c9.184,5.366 16.767,11.254 22.75,17.658c5.988,6.421 14.042,17.808 24.188,34.167l25.7,41.058l-50.821,-0l-30.713,-45.8c-10.916,-16.354 -18.375,-26.675 -22.395,-30.929c-4.025,-4.263 -8.275,-7.175 -12.771,-8.759c-4.509,-1.57 -11.634,-2.37 -21.396,-2.37l-8.613,-0l0,87.858l-42.491,-0Z" style="fill:#000;fill-rule:nonzero;"></path><path d="M2258.47,3710.51l-28.991,-78.091l-28.425,78.091l57.416,0Zm78.242,83.25l-46.229,0l-18.379,-47.8l-84.117,0l-17.363,47.8l-45.075,0l81.967,-210.441l44.929,-0l84.267,210.441Z" style="fill:#000;fill-rule:nonzero;"></path><path d="M2383.38,3793.76l-0,-174.846l-62.454,0l-0,-35.6l167.233,0l0,35.6l-62.287,0l-0,174.846l-42.492,-0Z" style="fill:#000;fill-rule:nonzero;"></path><rect x="2512.87" y="3583.32" width="42.492" height="210.446" style="fill:#000;"></rect><path d="M2629.58,3688.39c0,23.837 5.496,41.9 16.509,54.196c10.996,12.295 24.971,18.441 41.912,18.441c16.938,0 30.846,-6.104 41.704,-18.308c10.863,-12.2 16.288,-30.492 16.288,-54.896c-0,-24.117 -5.292,-42.112 -15.854,-53.975c-10.575,-11.875 -24.617,-17.808 -42.138,-17.808c-17.512,-0 -31.633,6.012 -42.35,18.025c-10.721,12.012 -16.071,30.112 -16.071,54.325m-43.791,1.437c-0,-21.437 3.208,-39.433 9.629,-53.975c4.779,-10.712 11.308,-20.337 19.592,-28.858c8.275,-8.517 17.345,-14.829 27.204,-18.942c13.112,-5.554 28.225,-8.329 45.35,-8.329c31.008,0 55.816,9.617 74.437,28.858c18.609,19.225 27.921,45.984 27.921,80.242c0,33.979 -9.233,60.558 -27.704,79.746c-18.471,19.192 -43.154,28.775 -74.071,28.775c-31.292,-0 -56.183,-9.546 -74.65,-28.642c-18.475,-19.091 -27.708,-45.371 -27.708,-78.875" style="fill:#000;fill-rule:nonzero;"></path><path d="M2822.09,3793.76l0,-210.446l41.342,0l86.138,140.533l-0,-140.533l39.47,0l0,210.446l-42.625,-0l-84.837,-137.229l-0,137.229l-39.488,-0Z" style="fill:#000;fill-rule:nonzero;"></path><rect x="3027.09" y="3753.42" width="40.342" height="40.342" style="fill:#ea090e;"></rect><path d="M3102.89,3793.76l-0,-210.446l41.341,0l86.138,140.533l-0,-140.533l39.471,0l-0,210.446l-42.625,-0l-84.838,-137.229l0,137.229l-39.487,-0Z" style="fill:#ea090e;fill-rule:nonzero;"></path><path d="M3313.37,3793.76l0,-210.446l156.038,0l-0,35.6l-113.558,0l-0,46.65l105.666,0l0,35.463l-105.666,-0l-0,57.283l117.566,-0l0,35.45l-160.046,-0Z" style="fill:#ea090e;fill-rule:nonzero;"></path><path d="M3486.63,3793.76l71.921,-109.817l-65.179,-100.629l49.67,0l42.209,67.613l41.341,-67.613l49.238,0l-65.458,102.208l71.916,108.238l-51.254,-0l-46.65,-72.788l-46.8,72.788l-50.954,-0Z" style="fill:#ea090e;fill-rule:nonzero;"></path><path d="M3750.06,3793.76l-0,-174.846l-62.45,0l-0,-35.6l167.233,0l0,35.6l-62.291,0l-0,174.846l-42.492,-0Z" style="fill:#ea090e;fill-rule:nonzero;"></path><path d="M2243.12,566.362l-108.896,-105.158c-17.983,-17.367 -46.65,-16.867 -64.012,1.116l-643.521,666.38c-17.367,17.983 -16.867,46.65 1.117,64.016l656.679,634.15c17.987,17.367 46.65,16.867 64.016,-1.116l643.517,-666.384c17.367,-17.983 16.867,-46.646 -1.112,-64.012l-248.896,-240.354l165.333,-171.205l313.317,302.563c76.958,74.321 79.1,196.962 4.779,273.925l-767.942,795.221c-74.321,76.962 -196.962,79.1 -273.921,4.783l-785.525,-758.579c-76.962,-74.317 -79.1,-196.963 -4.783,-273.921l767.946,-795.225c74.317,-76.958 196.962,-79.1 273.921,-4.779l173.321,167.371l-165.338,171.208Z" style="fill:#000;fill-rule:nonzero;"></path><path d="M2713,1706.52l108.896,105.159c17.983,17.366 46.65,16.866 64.012,-1.117l643.505,-666.367c17.366,-17.979 16.866,-46.645 -1.117,-64.012l-656.679,-634.15c-17.984,-17.367 -46.65,-16.867 -64.017,1.117l-643.5,666.366c-17.367,17.979 -16.867,46.646 1.117,64.013l248.891,240.354l-165.337,171.204l-313.313,-302.562c-76.958,-74.321 -79.1,-196.963 -4.779,-273.925l767.929,-795.209c74.317,-76.954 196.959,-79.1 273.921,-4.779l785.521,758.579c76.963,74.317 79.104,196.963 4.783,273.921l-767.945,795.225c-74.317,76.954 -196.959,79.096 -273.921,4.779l-173.317,-167.371l165.35,-171.225Z" style="fill:#ea090e;fill-rule:nonzero;"></path><path d="M4656.52,3087.36c0,58.242 -41.325,87.08 -123.691,87.08c-82.088,-0 -123.409,-28.838 -123.409,-87.08l0,-225.741c0,-58.238 41.321,-87.638 123.409,-87.638c82.366,0 123.691,29.4 123.691,87.638l0,225.741Zm39.934,-339.445c-34.942,-29.675 -89.58,-44.65 -164.175,-44.65c-74.325,-0 -128.684,14.7 -163.346,44.37c-34.671,29.675 -51.863,70.442 -51.863,121.75l0,210.213c0,51.583 17.192,92.071 51.863,121.471c34.662,29.396 89.021,44.366 163.346,44.366c74.595,0 129.233,-14.97 164.175,-44.645c34.941,-29.671 52.416,-70.163 52.416,-121.192l0,-210.213c0,-51.033 -17.475,-91.516 -52.416,-121.47" style="fill:#000;fill-rule:nonzero;"></path><path d="M4064.98,3104.56c-32.725,26.346 -72.659,39.379 -119.529,39.379c-79.592,0 -119.525,-27.175 -119.525,-81.529l-0,-195.796c-0,-61.566 39.933,-92.629 119.525,-92.629c79.87,0 119.529,24.129 119.529,71.829l-0,258.746Zm-0,-391.583l-0,41.871c-7.488,-12.479 -25.238,-24.125 -52.692,-35.217c-27.733,-10.817 -54.908,-16.362 -80.979,-16.362c-66.008,-0 -115.375,15.254 -148.371,46.033c-33,30.512 -49.367,72.937 -49.367,127.021l0,171.662c0,111.209 66.009,166.95 197.738,166.95c22.183,0 46.867,-3.046 73.492,-9.425c26.62,-6.1 46.866,-15.533 60.179,-28.012l-0,72.383c-0,39.104 -9.704,68.221 -29.671,87.079c-19.971,18.579 -54.633,28.013 -104,28.013c-49.642,-0 -91.517,-6.379 -125.625,-18.859l-20.525,69.33c35.496,13.312 89.854,19.691 163.342,19.691c73.5,0 126.741,-19.691 159.741,-59.346c32.725,-39.662 49.363,-90.962 49.363,-153.641l-0,-509.171l-92.625,-0Z" style="fill:#000;fill-rule:nonzero;"></path><path d="M3481.63,3234.53l0,-384.163c0,-50.846 -38.854,-76.271 -116.566,-76.271c-38.421,0 -68.609,8.196 -90.575,24.584c-21.963,16.387 -32.946,37.845 -32.946,64.383l-0,371.467l-92.488,-0l0,-521.488l92.488,0l-0,50.679c34.791,-40.304 86.275,-60.454 154.45,-60.454c88.596,0 144.679,31.133 168.254,93.396c6.583,17.733 9.871,37.417 9.871,59.042l-0,378.825l-92.488,-0Z" style="fill:#ea090e;fill-rule:nonzero;"></path><rect x="2865.72" y="2523.13" width="92.488" height="96.012" style="fill:#ea090e;"></rect><rect x="2865.72" y="2713.04" width="92.488" height="521.488" style="fill:#ea090e;"></rect><path d="M2599.03,3075.16c0,31.616 -11.091,56.02 -33.558,73.216c-22.462,17.475 -54.358,26.067 -95.121,26.067c-41.046,-0 -78.204,-9.429 -111.487,-28.008l-0,-317.263c6.933,-10.537 21.633,-22.462 44.096,-35.5c22.462,-13.033 49.916,-19.687 81.808,-19.687c31.896,-0 59.075,8.32 80.987,24.683c22.184,16.362 33.275,39.654 33.275,69.887l0,206.605Zm42.155,-324.746c-33.559,-31.342 -82.642,-47.146 -147.263,-47.146c-28.287,-0 -55.467,4.712 -81.808,14.421c-26.071,9.704 -46.871,21.354 -62.125,34.662l-10.538,-39.379l-72.937,0l-0,722.163l92.35,-0l-0,-217.425c36.05,18.3 77.1,27.729 123.137,27.729c66.275,-0 117.584,-16.638 154.467,-49.917c36.608,-33 55.187,-76.542 55.187,-130.346l0,-189.408c0,-52.142 -16.916,-93.742 -50.47,-125.354" style="fill:#ea090e;fill-rule:nonzero;"></path><path d="M1675.19,3234.53l-0,-384.163c-0,-50.846 -37.546,-76.271 -112.638,-76.271c-38.016,0 -67.304,8.092 -87.854,24.279c-20.487,16.259 -30.729,37.817 -30.729,64.688l-0,371.467l-92.488,-0l0,-521.488l92.488,0l-0,50.679c34.792,-40.304 87.017,-60.454 156.667,-60.454c69.72,0 118.35,22.771 145.887,68.313l12.292,-11.792c37.746,-37.675 90.541,-56.521 158.379,-56.521c87.587,0 141.725,31.133 162.412,93.396c5.909,17.733 8.863,37.417 8.863,59.042l-0,378.825l-92.488,-0l0,-384.163c0,-50.846 -34.12,-76.271 -102.362,-76.271c-42.988,0 -74.725,8.092 -95.208,24.279c-20.488,16.259 -30.73,37.817 -30.73,64.688l0,371.467l-92.491,-0Z" style="fill:#ea090e;fill-rule:nonzero;"></path><path d="M1094.81,3087.36c-0,58.242 -41.321,87.08 -123.688,87.08c-82.092,-0 -123.412,-28.838 -123.412,-87.08l-0,-225.741c-0,-58.238 41.32,-87.638 123.412,-87.638c82.367,0 123.688,29.4 123.688,87.638l-0,225.741Zm39.933,-339.445c-34.942,-29.675 -89.575,-44.65 -164.175,-44.65c-74.325,-0 -128.683,14.7 -163.35,44.37c-34.667,29.675 -51.854,70.442 -51.854,121.75l-0,210.213c-0,51.583 17.187,92.071 51.854,121.471c34.667,29.396 89.025,44.366 163.35,44.366c74.6,0 129.233,-14.97 164.175,-44.645c34.946,-29.671 52.417,-70.163 52.417,-121.192l-0,-210.213c-0,-51.033 -17.471,-91.516 -52.417,-121.47" style="fill:#ea090e;fill-rule:nonzero;"></path><path d="M299.697,3234.53l-92.488,-0l0,-740.921l92.488,-0l-0,483.096l249.458,-263.663l101.358,0l-212.083,229.308l233.238,292.18l-106.792,-0l-186.896,-242.005l-78.283,77.68l-0,164.325Z" style="fill:#ea090e;fill-rule:nonzero;"></path></g></svg>