<svg width="196" height="40" viewBox="0 0 196 40" fill="none" xmlns="http://www.w3.org/2000/svg">
<rect width="196" height="40" fill="white"/>
<g clip-path="url(#clip0_3003_14)">
<path d="M59.9799 15.8539H59.8063L59.4457 12.8463H56.5742V33.1371H60.3405V20.2516C61.2354 17.7787 63.0789 16.4153 65.6699 16.1212V12.7795C62.9718 12.6726 61.0084 14.0494 59.9799 15.8539Z" fill="black"/>
<path d="M42.536 5.01343L32.7056 27.5098L32.5319 28.0444H32.3716L32.198 27.5098L22.3008 5.01343H18L30.7021 33.1371H34.2015L46.8367 5.01343H42.536Z" fill="black"/>
<path d="M97.7644 24.8495C97.7644 30.3165 94.8659 33.9925 89.2964 33.9925C83.7266 33.9925 80.8015 30.3165 80.8283 24.8495V12.7793H84.7017V24.4886C84.7017 28.7526 86.7719 30.4235 89.2964 30.4235C91.8206 30.4235 93.8242 28.7526 93.891 24.4886V12.7793H97.7644V24.8495Z" fill="black"/>
<path d="M50.4304 12.7793H46.4902V33.137H50.4304V12.7793Z" fill="black"/>
<path d="M68.3281 25.6918C68.3281 30.4905 70.6253 33.3376 75.4336 33.3376H76.5021V29.9959C73.0696 29.9291 72.1347 28.3251 72.1347 24.422V16.0543H77.1032V12.7795H72.1347V5H68.3281V25.6918Z" fill="black"/>
<path d="M139.09 12.7661H126.254V15.9742H133.4L125.76 33.1238H139.691V29.9157H131.356L139.09 12.7661Z" fill="black"/>
<path d="M155.158 12.7661H142.322V15.9742H149.468L141.828 33.1238H155.799V29.9157H147.465L155.158 12.7661Z" fill="black"/>
<path d="M112.684 11.9641C106.487 11.9641 101.785 16.7628 101.785 22.9783C101.785 29.1805 106.487 33.9925 112.684 33.9925C118.881 33.9925 123.583 29.1939 123.583 22.9783C123.583 16.7761 118.881 11.9641 112.684 11.9641ZM112.684 30.4237C108.717 30.4237 105.819 27.0552 105.819 22.9783C105.819 18.9148 108.717 15.533 112.684 15.533C116.651 15.533 119.549 18.9015 119.549 22.9783C119.549 27.0552 116.651 30.4237 112.684 30.4237Z" fill="black"/>
<path d="M168.102 11.9641C161.905 11.9641 157.203 16.7628 157.203 22.9784C157.203 29.1806 161.905 33.9926 168.102 33.9926C174.299 33.9926 179.001 29.1939 179.001 22.9784C179.001 16.7762 174.299 11.9641 168.102 11.9641ZM168.102 30.4237C164.135 30.4237 161.237 27.0552 161.237 22.9784C161.237 18.9148 164.135 15.533 168.102 15.533C172.069 15.533 174.967 18.9015 174.967 22.9784C174.967 27.0552 172.069 30.4237 168.102 30.4237Z" fill="black"/>
</g>
<defs>
<clipPath id="clip0_3003_14">
<rect width="161" height="29" fill="white" transform="translate(18 5)"/>
</clipPath>
</defs>
</svg>
