<svg width="7" height="6" viewBox="0 0 7 6" fill="none" xmlns="http://www.w3.org/2000/svg">
<g clip-path="url(#clip0_1111_603)">
<path d="M2.93987 5.14453L1.02189 3.19922C0.968234 3.14447 0.941406 3.07416 0.941406 2.98828C0.941406 2.90241 0.968234 2.83209 1.02189 2.77734L1.4469 2.35547C1.50056 2.29297 1.56757 2.26172 1.64793 2.26172C1.72829 2.26172 1.79909 2.29297 1.86034 2.35547L3.14659 3.66797L5.90284 0.855469C5.96409 0.792969 6.03489 0.761719 6.11525 0.761719C6.19561 0.761719 6.26262 0.792969 6.31628 0.855469L6.74129 1.27734C6.79495 1.33209 6.82177 1.40241 6.82177 1.48828C6.82177 1.57416 6.79495 1.64447 6.74129 1.69922L3.35331 5.14453C3.29965 5.20703 3.23075 5.23828 3.14659 5.23828C3.06243 5.23828 2.99353 5.20703 2.93987 5.14453Z" fill="#CB333B"/>
</g>
<defs>
<clipPath id="clip0_1111_603">
<rect width="5.88" height="6" fill="white" transform="translate(0.941406)"/>
</clipPath>
</defs>
</svg>
