<svg width="125" height="40" viewBox="0 0 125 40" fill="none" xmlns="http://www.w3.org/2000/svg">
<path d="M11.3391 36.52V36.4992C11.3391 34.8585 12.5644 33.519 14.3193 33.519C16.0741 33.519 16.0222 33.8929 16.5829 34.4224L15.9287 35.1701C15.4615 34.7443 14.9734 34.4536 14.3089 34.4536C13.2082 34.4536 12.4086 35.357 12.4086 36.4888V36.5096C12.4086 37.6414 13.2082 38.5552 14.3089 38.5552C15.4096 38.5552 15.4719 38.2748 15.9703 37.8075L16.6245 38.4617C16.0222 39.0848 15.3576 39.4897 14.2777 39.4897C12.5955 39.4897 11.3391 38.1814 11.3391 36.52Z" fill="#231F20"/>
<path d="M18.0159 33.6123H19.0335V36.011H21.7852V33.6123H22.8028V39.3857H21.7852V36.9559H19.0335V39.3857H18.0159V33.6123Z" fill="#231F20"/>
<path d="M26.6448 33.5708H27.5897L30.1234 39.3857H29.0538L28.4723 37.9943H25.7414L25.1495 39.3857H24.1111L26.6448 33.5708ZM28.0985 37.0909L27.1017 34.7857L26.1152 37.0909H28.0985Z" fill="#231F20"/>
<path d="M31.4421 33.6123H32.3766L35.471 37.5997V33.6123H36.4678V39.3857H35.6164L32.4285 35.2841V39.3857H31.4317V33.6123H31.4421Z" fill="#231F20"/>
<path d="M38.2746 33.6123H39.2092L42.3035 37.5997V33.6123H43.3004V39.3857H42.4489L39.2611 35.2841V39.3857H38.2643V33.6123H38.2746Z" fill="#231F20"/>
<path d="M45.1071 33.6124H49.3853V34.5158H46.1248V36.0215H49.0218V36.9249H46.1248V38.472H49.4268V39.3754H45.1071V33.6021V33.6124Z" fill="#231F20"/>
<path d="M50.9532 33.6123H51.9708V38.4615H55.0029V39.3857H50.9532V33.6123Z" fill="#231F20"/>
<path d="M58.7826 38.5448L59.3952 37.8179C59.9456 38.2956 60.5063 38.5656 61.2124 38.5656C61.9185 38.5656 62.23 38.2644 62.23 37.8387V37.8179C62.23 37.4026 62.0016 37.1845 60.932 36.9353C59.7068 36.6342 59.011 36.2707 59.011 35.2116V35.1908C59.011 34.2044 59.8314 33.519 60.984 33.519C62.1366 33.519 62.4896 33.7786 63.0815 34.2459L62.5415 35.0143C62.0223 34.6301 61.5031 34.4224 60.9736 34.4224C60.444 34.4224 60.0286 34.7236 60.0286 35.1078V35.1285C60.0286 35.575 60.2882 35.7723 61.4097 36.0319C62.635 36.333 63.258 36.7692 63.258 37.7245V37.7452C63.258 38.8252 62.4065 39.469 61.202 39.469C59.9975 39.469 59.4887 39.1678 58.793 38.5448H58.7826Z" fill="#231F20"/>
<path d="M64.5144 36.52V36.4992C64.5144 34.8793 65.7709 33.519 67.5361 33.519C69.3014 33.519 70.5474 34.8586 70.5474 36.4888V36.5096C70.5474 38.1294 69.291 39.4897 67.5257 39.4897C65.7605 39.4897 64.5144 38.1502 64.5144 36.52ZM69.4883 36.52V36.4992C69.4883 35.3777 68.6679 34.4432 67.5257 34.4432C66.3835 34.4432 65.584 35.357 65.584 36.4784V36.4992C65.584 37.6206 66.4043 38.5448 67.5465 38.5448C68.6887 38.5448 69.4883 37.6414 69.4883 36.52Z" fill="#231F20"/>
<path d="M72.0946 33.6123H73.1122V38.4615H76.1443V39.3857H72.0946V33.6123Z" fill="#231F20"/>
<path d="M77.4215 36.9351V33.6123H78.4391V36.8936C78.4391 37.9631 78.9895 38.5342 79.9032 38.5342C80.817 38.5342 81.357 37.9943 81.357 36.9351V33.6123H82.3746V36.8832C82.3746 38.6069 81.3985 39.4688 79.8928 39.4688C78.3872 39.4688 77.4319 38.6069 77.4319 36.9247L77.4215 36.9351Z" fill="#231F20"/>
<path d="M85.4897 34.5573H83.6621V33.6228H88.3452V34.5573H86.5073V39.3858H85.4897V34.5573Z" fill="#231F20"/>
<path d="M89.7782 33.6123H90.7958V39.3857H89.7782V33.6123Z" fill="#231F20"/>
<path d="M92.4053 36.52V36.4992C92.4053 34.8793 93.6617 33.519 95.427 33.519C97.1922 33.519 98.4383 34.8586 98.4383 36.4888V36.5096C98.4383 38.1294 97.1818 39.4897 95.4166 39.4897C93.6513 39.4897 92.4053 38.1502 92.4053 36.52ZM97.3687 36.52V36.4992C97.3687 35.3777 96.5484 34.4432 95.4062 34.4432C94.264 34.4432 93.4644 35.357 93.4644 36.4784V36.4992C93.4644 37.6206 94.2847 38.5448 95.427 38.5448C96.5692 38.5448 97.3687 37.6414 97.3687 36.52Z" fill="#231F20"/>
<path d="M99.9854 33.6123H100.92L104.014 37.5997V33.6123H105.011V39.3857H104.16L100.972 35.2841V39.3857H99.9751V33.6123H99.9854Z" fill="#231F20"/>
<path d="M106.434 38.5448L107.046 37.8179C107.597 38.2956 108.157 38.5656 108.864 38.5656C109.57 38.5656 109.881 38.2644 109.881 37.8387V37.8179C109.881 37.4026 109.653 37.1845 108.583 36.9353C107.358 36.6342 106.662 36.2707 106.662 35.2116V35.1908C106.662 34.2044 107.483 33.519 108.635 33.519C109.788 33.519 110.141 33.7786 110.733 34.2459L110.193 35.0143C109.674 34.6301 109.154 34.4224 108.625 34.4224C108.095 34.4224 107.68 34.7236 107.68 35.1078V35.1285C107.68 35.575 107.939 35.7723 109.061 36.0319C110.286 36.333 110.909 36.7692 110.909 37.7245V37.7452C110.909 38.8252 110.058 39.469 108.853 39.469C107.649 39.469 107.14 39.1678 106.444 38.5448H106.434Z" fill="#231F20"/>
<path d="M79.7475 11.1731L72.6761 0.675049H65.2621V28.0571H72.6865V12.3672L79.654 23.0521H79.7475V11.1731Z" fill="#231F20"/>
<path d="M0 14.3192V14.2362C0 6.26142 6.10567 0 14.3919 0C22.6782 0 23.5816 2.34674 26.0114 5.66955L20.3003 10.093C18.7323 8.17204 16.936 6.88445 14.3192 6.88445C10.4876 6.88445 7.78784 10.1657 7.78784 14.1635V14.2362C7.78784 18.3481 10.4876 21.5464 14.3192 21.5464C18.1509 21.5464 18.857 20.2172 20.4976 18.2235L26.2087 22.294C23.6231 25.8556 20.1445 28.4723 14.1219 28.4723C8.09935 28.4723 0 22.5017 0 14.3192Z" fill="#231F20"/>
<path d="M29.5315 0.550537H37.122V21.287H50.3821V27.9326H29.5315V0.550537Z" fill="#231F20"/>
<path d="M79.7371 11.1731L86.6215 0.675049H94.2225V28.0571H86.7981V12.3672L79.8305 23.0521H79.7371V11.1731Z" fill="#0072BC"/>
<path d="M97.8049 0.550537H111.844C115.281 0.550537 117.711 1.41239 119.32 2.98034C120.41 4.11218 121.075 5.5659 121.075 7.43499V7.51806C121.075 10.6851 119.279 12.5646 116.849 13.6237C120.172 14.7244 122.29 16.5935 122.29 20.3109V20.3939C122.29 25.0874 118.458 27.943 111.927 27.943H97.8049V0.550537ZM113.609 9.00294C113.609 7.47652 112.394 6.6562 110.172 6.6562H105.209V11.4639H109.985C112.29 11.4639 113.619 10.6851 113.619 9.07562V8.99255L113.609 9.00294ZM110.992 16.7908H105.198V21.8373H111.065C113.412 21.8373 114.699 20.9339 114.699 19.3348V19.2517C114.699 17.7669 113.526 16.7908 110.982 16.7908H110.992Z" fill="#231F20"/>
<path d="M54.1099 15.4408V27.9948L61.7212 28.0467V4.6001L61.6278 4.7247" fill="#231F20"/>
<path d="M61.6174 0.768518L61.7004 0.654297H54.1099V11.4638L61.6174 0.768518Z" fill="#231F20"/>
<path d="M125 2.31578C125 3.34378 124.211 4.08102 123.245 4.08102C122.279 4.08102 121.48 3.34378 121.48 2.31578C121.48 1.28779 122.269 0.550537 123.245 0.550537C124.221 0.550537 125 1.28779 125 2.31578ZM124.751 2.31578C124.751 1.42277 124.076 0.778981 123.245 0.778981C122.414 0.778981 121.739 1.42277 121.739 2.31578C121.739 3.20879 122.414 3.85258 123.245 3.85258C124.076 3.85258 124.751 3.20879 124.751 2.31578ZM122.57 3.22955V1.36047H123.349C123.764 1.36047 124.024 1.55776 124.024 1.94196C124.024 2.32616 123.847 2.40923 123.64 2.47154L124.097 3.22955H123.733L123.307 2.53384H122.902V3.22955H122.57ZM123.297 2.25348C123.557 2.25348 123.681 2.14964 123.681 1.94196C123.681 1.73429 123.557 1.64083 123.297 1.64083H122.892V2.25348H123.297Z" fill="#231F20"/>
</svg>
