<svg width="172" height="29" viewBox="0 0 172 29" fill="none" xmlns="http://www.w3.org/2000/svg">
<path d="M9.7948 8.77534V23.7406H6.39028V8.79355H0V5.2616H16.1851V8.79355H9.7948V8.77534Z" fill="#323232"/>
<path d="M24.7964 23.7406V5.24341H37.1219V8.77536H28.201V11.9614H36.3026V15.5298H28.201V20.2269H37.668V23.7406H24.7964Z" fill="#323232"/>
<path d="M47.4446 23.7406V5.24341H50.8492V12.9445L58.1497 5.24341H62.9015L54.0352 14.4556L62.8651 23.7224H58.0041L50.8492 15.9667V23.7406H47.4446Z" fill="#323232"/>
<path d="M83.7655 23.7406L75.3726 10.6688V23.7406H71.9681V5.24341H76.4103L84.8033 18.4609V5.24341H88.2078V23.7406H83.7655Z" fill="#323232"/>
<path d="M97.7112 14.4555C97.7112 9.37602 101.243 4.87915 106.65 4.87915C112.058 4.87915 115.571 9.43063 115.571 14.5101C115.571 19.5895 112.039 24.0864 106.65 24.0864C101.261 24.0864 97.7112 19.5349 97.7112 14.4555ZM111.948 14.5101C111.948 11.2148 110.055 8.28366 106.65 8.28366C103.246 8.28366 101.334 11.1602 101.334 14.4555C101.334 17.7507 103.246 20.6819 106.65 20.6819C110.091 20.6819 111.948 17.8054 111.948 14.5101Z" fill="#323232"/>
<path d="M131.046 19.1892L136.199 5.26161H139.894L133.049 23.7406H129.007L122.162 5.24341H125.858L131.046 19.1892Z" fill="#323232"/>
<path d="M163.398 14.3828C162.816 15.0746 162.124 15.6754 161.359 16.167C161.596 16.7496 161.723 17.3686 161.723 18.0058C161.669 21.028 159.174 23.4494 156.152 23.3947C156.134 23.3947 156.098 23.3947 156.079 23.3947C153.003 23.4676 150.436 21.0826 150.308 18.0058C150.308 17.3504 150.417 16.695 150.672 16.076C150.927 15.457 151.291 14.8744 151.746 14.401C152.256 13.873 152.857 13.4361 153.531 13.1448V14.3464C153.531 14.6013 153.749 14.8197 154.004 14.8197C154.095 14.8197 154.168 14.8015 154.241 14.7469L157.536 12.8353L158.064 12.5258C158.282 12.3984 158.373 12.1071 158.246 11.8704C158.21 11.7976 158.137 11.7429 158.064 11.6883L157.063 11.1057L154.222 9.4672C154.004 9.33976 153.713 9.41258 153.567 9.64926C153.531 9.72209 153.512 9.79491 153.512 9.88594V11.397C152.493 11.6701 151.528 12.1071 150.636 12.6897C149.926 13.163 149.289 13.7274 148.742 14.3646C147.413 15.9121 146.685 17.8601 146.667 19.8992C146.667 24.7966 150.873 28.7473 156.061 28.7473C161.25 28.7473 165.455 24.7784 165.455 19.8992C165.455 17.8966 164.727 15.9303 163.398 14.3828Z" fill="#E42D12"/>
<path d="M156.079 0C150.891 0 146.685 3.96889 146.685 8.84808C146.685 10.8871 147.432 12.8534 148.761 14.3827C149.307 13.7455 149.944 13.1629 150.654 12.7077C150.417 12.0887 150.29 11.4333 150.29 10.7779C150.417 7.70111 152.984 5.31613 156.061 5.38896C159.083 5.29793 161.614 7.6647 161.705 10.7051C161.705 10.7233 161.705 10.7597 161.705 10.7779C161.705 11.3969 161.578 12.0341 161.341 12.6167C161.068 13.2903 160.686 13.8911 160.176 14.4009C159.63 14.9471 158.992 15.384 158.282 15.6935V14.4737C158.282 14.2188 158.064 14.0004 157.809 14.0004C157.718 14.0004 157.645 14.0186 157.572 14.0732L154.313 15.9484L153.749 16.2761C153.531 16.4035 153.44 16.6948 153.567 16.9315C153.603 17.0043 153.676 17.059 153.749 17.1136L154.605 17.6051L157.572 19.3165C157.791 19.4439 158.082 19.3711 158.228 19.1526C158.264 19.0798 158.301 19.007 158.301 18.916V17.4595C159.375 17.2228 160.412 16.7859 161.341 16.1851C162.106 15.6935 162.797 15.0927 163.38 14.4009C164.709 12.8534 165.437 10.9054 165.455 8.86629C165.474 3.96889 161.268 0 156.079 0Z" fill="#56AE31"/>
<path d="M167.285 2.37275C167.285 2.02684 167.339 1.71734 167.467 1.42604C167.594 1.13475 167.758 0.879866 167.976 0.679601C168.195 0.46113 168.45 0.297276 168.723 0.188041C169.014 0.0605992 169.324 0.00598145 169.633 0.00598145C169.961 0.00598145 170.252 0.0605992 170.544 0.188041C170.835 0.315482 171.09 0.479336 171.308 0.679601C171.527 0.879866 171.691 1.13475 171.818 1.42604C171.945 1.71734 172 2.02684 172 2.35455C172 2.70046 171.945 3.00996 171.818 3.30126C171.691 3.59255 171.527 3.84743 171.308 4.0477C171.09 4.26617 170.835 4.43002 170.544 4.53926C170.252 4.6667 169.943 4.72132 169.633 4.72132C169.306 4.72132 168.996 4.6667 168.723 4.53926C168.432 4.41182 168.177 4.24796 167.976 4.0477C167.758 3.84743 167.594 3.59255 167.467 3.30126C167.339 3.00996 167.285 2.70046 167.285 2.37275ZM167.649 2.37275C167.649 2.66405 167.703 2.91893 167.813 3.15561C167.922 3.39228 168.049 3.61076 168.231 3.79282C168.413 3.97487 168.632 4.12052 168.869 4.21155C169.105 4.30258 169.36 4.37541 169.651 4.37541C169.943 4.37541 170.198 4.32079 170.434 4.21155C170.671 4.10232 170.889 3.97487 171.071 3.79282C171.254 3.61076 171.399 3.39228 171.49 3.15561C171.599 2.90072 171.654 2.64584 171.654 2.35455C171.654 2.06325 171.599 1.80837 171.49 1.57169C171.381 1.33501 171.254 1.11654 171.071 0.934484C170.889 0.752425 170.671 0.606777 170.434 0.515748C170.198 0.406512 169.943 0.3701 169.651 0.3701C169.36 0.3701 169.105 0.424718 168.869 0.533953C168.632 0.643189 168.413 0.770631 168.231 0.95269C168.049 1.13475 167.904 1.35322 167.813 1.5899C167.703 1.80837 167.649 2.08146 167.649 2.37275ZM168.778 1.00731H169.779C170.107 1.00731 170.343 1.06193 170.507 1.18937C170.671 1.31681 170.744 1.51707 170.744 1.79016C170.744 2.02684 170.671 2.2089 170.544 2.33634C170.398 2.44558 170.234 2.5184 170.034 2.53661L170.817 3.7382H170.398L169.651 2.57302H169.16V3.7382H168.778V1.00731ZM169.142 2.22711H169.615C169.706 2.22711 169.797 2.22711 169.888 2.2089C169.979 2.2089 170.052 2.19069 170.125 2.15428C170.198 2.11787 170.252 2.08146 170.289 2.02684C170.325 1.97222 170.343 1.88119 170.343 1.77196C170.343 1.68093 170.325 1.6081 170.289 1.55349C170.252 1.49887 170.198 1.46246 170.143 1.42604C170.088 1.38963 170.016 1.37143 169.943 1.37143C169.87 1.37143 169.797 1.35322 169.724 1.35322H169.142V2.22711Z" fill="#323232"/>
</svg>
