<svg width="600" height="108" viewBox="0 0 600 108" fill="none" xmlns="http://www.w3.org/2000/svg">
<path d="M156.448 40.421H155.801L154.457 29.2205H143.756V104.786H157.792V56.7986C161.127 47.5893 167.997 42.5118 177.653 41.4166V28.9716C167.598 28.5734 160.281 33.7007 156.448 40.421Z" fill="black"/>
<path d="M91.4384 0.0495605L54.8033 83.829L54.1562 85.8202H53.5589L52.9118 83.829L16.0279 0.0495605H0L47.3369 104.786H60.3782L107.466 0.0495605H91.4384Z" fill="black"/>
<path d="M297.261 73.9223C297.261 94.2823 286.459 107.972 265.703 107.972C244.946 107.972 234.045 94.2823 234.145 73.9223V28.9712H248.58V72.5783C248.58 88.458 256.295 94.6805 265.703 94.6805C275.11 94.6805 282.577 88.458 282.826 72.5783V28.9712H297.261V73.9223Z" fill="black"/>
<path d="M120.857 28.9712H106.173V104.786H120.857V28.9712Z" fill="black"/>
<path d="M187.561 77.0592C187.561 94.9301 196.122 105.533 214.041 105.533H218.023V93.0883C205.231 92.8394 201.747 86.8658 201.747 72.3301V41.1679H220.263V28.9719H201.747V0H187.561V77.0592Z" fill="black"/>
<path d="M451.266 28.9223H403.431V40.8695H430.061L401.589 104.737H453.506V92.7898H422.445L451.266 28.9223Z" fill="black"/>
<path d="M511.149 28.9223H463.314V40.8695H489.944L461.472 104.737H513.538V92.7898H482.478L511.149 28.9223Z" fill="black"/>
<path d="M352.861 25.9353C329.765 25.9353 312.244 43.8062 312.244 66.9538C312.244 90.0517 329.765 107.972 352.861 107.972C375.957 107.972 393.479 90.1014 393.479 66.9538C393.479 43.856 375.957 25.9353 352.861 25.9353ZM352.861 94.6812C338.078 94.6812 327.276 82.1367 327.276 66.9538C327.276 51.8208 338.078 39.2265 352.861 39.2265C367.645 39.2265 378.446 51.771 378.446 66.9538C378.446 82.1367 367.645 94.6812 352.861 94.6812Z" fill="black"/>
<path d="M559.383 25.935C536.287 25.935 518.766 43.806 518.766 66.9536C518.766 90.0514 536.287 107.972 559.383 107.972C582.479 107.972 600 90.1012 600 66.9536C600 43.8558 582.479 25.935 559.383 25.935ZM559.383 94.6809C544.599 94.6809 533.798 82.1364 533.798 66.9536C533.798 51.8205 544.599 39.2262 559.383 39.2262C574.166 39.2262 584.968 51.7708 584.968 66.9536C584.968 82.1364 574.166 94.6809 559.383 94.6809Z" fill="black"/>
</svg>
