<svg width="196" height="40" viewBox="0 0 196 40" fill="none" xmlns="http://www.w3.org/2000/svg">
<g clip-path="url(#clip0_23_3)">
<path d="M196 0H0V40H196V0Z" fill="white"/>
<path d="M82.7676 33.1477C80.6274 41.4144 65.4472 39.0094 51.8189 30.9854C38.6245 23.2188 31.2403 11.3777 34.9618 5.04524C38.6907 -1.28719 51.7086 0.323502 65.0648 7.81063C74.4862 13.0987 85.1873 23.7925 82.7676 33.1477Z" stroke="#0B489D" stroke-width="0.377582"/>
<path d="M78.8181 30.8015C77.0971 37.1707 64.2263 35.7659 52.9442 29.1246C42.015 22.6892 35.9179 12.8559 39.0143 7.58993C42.1106 2.32393 53.1942 3.14766 63.9616 9.83312C71.3678 14.4298 80.9142 23.0349 78.8181 30.8015Z" stroke="#0B489D" stroke-width="0.377582"/>
<path d="M74.6995 28.5289C73.3168 33.6257 63.0422 32.5299 54.0547 27.2345C45.3467 22.1082 40.6765 13.7312 42.9711 10.0317C45.5527 5.86895 54.621 6.72945 62.8731 11.7822C68.801 15.4154 76.3837 22.3141 74.6995 28.5289Z" stroke="#0B489D" stroke-width="0.377582"/>
<path d="M63.6821 22.417C63.2261 24.0644 59.9606 23.7334 57.107 22.0566C54.349 20.4312 52.8854 17.754 53.6282 16.5552C54.4593 15.2093 57.3497 15.4594 59.968 17.0627C61.8434 18.21 64.2411 20.4091 63.6821 22.417Z" stroke="#0B489D" stroke-width="0.377582"/>
<path d="M39.5291 1.69873L54.6357 15.8198" stroke="#0B489D" stroke-width="0.377582"/>
<path d="M44.1773 1L55.4374 15.6948" stroke="#0B489D" stroke-width="0.377582"/>
<path d="M49.9067 1.69873L56.6583 15.7683" stroke="#0B489D" stroke-width="0.377582"/>
<path d="M56.0258 3.54492L58.1808 16.2098" stroke="#0B489D" stroke-width="0.377582"/>
<path d="M62.373 6.35449L59.5782 16.8497" stroke="#0B489D" stroke-width="0.377582"/>
<path d="M68.5656 10.0391L61.1373 17.8572" stroke="#0B489D" stroke-width="0.377582"/>
<path d="M74.2361 14.5623L61.9758 18.6221" stroke="#0B489D" stroke-width="0.377582"/>
<path d="M78.9432 19.6516H62.9172" stroke="#0B489D" stroke-width="0.377582"/>
<path d="M81.6203 24.2411L63.4541 20.5564" stroke="#0B489D" stroke-width="0.377582"/>
<path d="M83.025 28.6317L63.7556 21.5344" stroke="#0B489D" stroke-width="0.377582"/>
<path d="M82.9589 32.5815L63.6821 22.4172" stroke="#0B489D" stroke-width="0.377582"/>
<path d="M81.3041 35.6998L63.41 22.9688" stroke="#0B489D" stroke-width="0.377582"/>
<path d="M77.9282 37.7369L62.7039 23.3584" stroke="#0B489D" stroke-width="0.377582"/>
<path d="M73.155 38.3107L61.8434 23.4983" stroke="#0B489D" stroke-width="0.377582"/>
<path d="M60.5637 23.3733L67.3595 37.487" stroke="#0B489D" stroke-width="0.377582"/>
<path d="M59.2031 23.0276L61.1006 35.6042" stroke="#0B489D" stroke-width="0.377582"/>
<path d="M57.8057 22.4541L54.8785 32.7066" stroke="#0B489D" stroke-width="0.377582"/>
<path d="M56.4671 21.6301L48.6343 29.0143" stroke="#0B489D" stroke-width="0.377582"/>
<path d="M55.2903 20.6445L43.0962 24.5573" stroke="#0B489D" stroke-width="0.377582"/>
<path d="M54.3122 19.5488L38.5142 19.593" stroke="#0B489D" stroke-width="0.377582"/>
<path d="M53.7311 18.5266L35.5796 14.9448" stroke="#0B489D" stroke-width="0.377582"/>
<path d="M53.4737 17.4893L34.0572 10.3552" stroke="#0B489D" stroke-width="0.377582"/>
<path d="M53.5399 16.7247L34.2484 6.47217" stroke="#0B489D" stroke-width="0.377582"/>
<path d="M53.8562 16.2834L36.1533 3.41992" stroke="#0B489D" stroke-width="0.377582"/>
<path d="M65.3516 17.7249H62.1744L61.4536 19.2326H58.5853L63.5865 10.1274H66.6755L68.47 19.2326H65.5281L65.3516 17.7249ZM65.0721 15.8936L64.5279 13.3488L63.0937 15.8936H65.0721Z" fill="#0B489D"/>
<path d="M70.8457 10.1274H73.6552L72.5299 16.5555H77.0604L76.5897 19.2326H69.2497L70.8457 10.1274Z" fill="#0B489D"/>
<path d="M79.3183 10.1274H82.1278L81.0025 16.5555H85.533L85.0623 19.2326H77.7223L79.3183 10.1274Z" fill="#0B489D"/>
<path d="M87.813 10.1274H90.4313L92.9687 15.1581L93.8512 10.1274H96.5063L94.903 19.2326H92.2479L89.7252 14.2314L88.85 19.2326H86.2097L87.813 10.1274Z" fill="#0B489D"/>
<path d="M97.786 10.1274H105.317L104.927 12.3559H100.206L100.029 13.3635H104.413L104.008 15.6582H99.6247L99.4335 16.7246H104.295L103.854 19.2253H96.1901L97.786 10.1274Z" fill="#0B489D"/>
<path d="M106.347 10.1274H114.878L114.489 12.3706H111.628L110.421 19.2326H107.612L108.818 12.3706H105.957L106.347 10.1274Z" fill="#0B489D"/>
<path d="M122.079 10.1274H130.61L130.22 12.3706H127.359L126.153 19.2326H123.344L124.55 12.3706H121.689L122.079 10.1274Z" fill="#0B489D"/>
<path d="M135.082 17.7249H131.912L131.191 19.2326H128.323L133.332 10.1274H136.421L138.215 19.2326H135.273L135.082 17.7249ZM134.81 15.8936L134.266 13.3488L132.831 15.8936H134.81Z" fill="#0B489D"/>
<path d="M140.554 10.1274H143.363L142.238 16.5555H146.769L146.298 19.2326H138.958L140.554 10.1274Z" fill="#0B489D"/>
<path d="M157.867 17.7249H154.697L153.976 19.2326H151.108L156.116 10.1274H159.205L161 19.2326H158.058L157.867 17.7249ZM157.587 15.8936L157.043 13.3488L155.609 15.8936H157.587Z" fill="#0B489D"/>
<path d="M115.82 16.5627L115.209 19.4237H112.165L112.775 16.5627H115.82Z" fill="#0B489D"/>
<path d="M148.791 10.1274H151.601L150.475 16.5555L150.005 19.2326H147.195L148.791 10.1274Z" fill="#0B489D"/>
<path d="M118.137 10.1274H120.946L119.821 16.5555L119.35 19.2326H116.541L118.137 10.1274Z" fill="#0B489D"/>
<path d="M107.781 24.4322L107.207 21.8948H107.972L108.208 23.1157C108.222 23.2039 108.237 23.2922 108.252 23.3804C108.267 23.4687 108.274 23.5643 108.289 23.6599C108.318 23.5937 108.362 23.4687 108.436 23.2922C108.458 23.2407 108.472 23.2039 108.487 23.1745L109.039 21.8948H109.782L109.958 23.1157C109.965 23.1819 109.98 23.2554 109.988 23.3363C109.995 23.4172 110.01 23.5275 110.017 23.6673C110.046 23.5717 110.083 23.4687 110.12 23.3657C110.157 23.2628 110.208 23.1524 110.267 23.0348L110.804 21.8948H111.62L110.289 24.4322H109.598L109.399 23.0421C109.384 22.9318 109.37 22.8362 109.362 22.7626C109.355 22.6891 109.348 22.6155 109.348 22.5567C109.281 22.7185 109.23 22.8362 109.201 22.9024C109.171 22.9686 109.149 23.0127 109.134 23.0495L108.487 24.4395H107.781V24.4322Z" fill="#0B489D" stroke="#0B489D" stroke-width="0.188791"/>
<path d="M112.407 23.329V23.3878C112.407 23.557 112.459 23.6894 112.569 23.7923C112.679 23.8953 112.826 23.9394 113.01 23.9394C113.143 23.9394 113.253 23.91 113.356 23.8585C113.459 23.807 113.555 23.7114 113.65 23.5864L114.143 23.9983C114.018 24.1821 113.856 24.3145 113.665 24.4101C113.474 24.5057 113.238 24.5499 112.981 24.5499C112.591 24.5499 112.275 24.4322 112.039 24.2042C111.804 23.9762 111.686 23.6747 111.686 23.2922C111.686 22.8656 111.819 22.5126 112.091 22.2405C112.363 21.9684 112.701 21.8286 113.113 21.8286C113.496 21.8286 113.79 21.9463 114.011 22.1743C114.231 22.4023 114.334 22.7259 114.334 23.1304C114.334 23.1745 114.334 23.2407 114.327 23.329V23.3437H112.407V23.329ZM112.444 22.8951H113.635C113.635 22.7185 113.591 22.5862 113.496 22.4905C113.407 22.3949 113.282 22.3508 113.113 22.3508C112.937 22.3508 112.797 22.3949 112.679 22.4905C112.584 22.5788 112.495 22.7185 112.444 22.8951Z" fill="#0B489D" stroke="#0B489D" stroke-width="0.188791"/>
<path d="M116.276 24.432L116.607 21.8947H117.283L117.225 22.2918C117.357 22.1227 117.489 21.9976 117.622 21.9241C117.754 21.8505 117.894 21.8138 118.048 21.8138C118.225 21.8138 118.365 21.8579 118.482 21.9388C118.6 22.0197 118.688 22.1521 118.747 22.3139C118.894 22.13 119.034 22.005 119.166 21.9241C119.299 21.8505 119.438 21.8064 119.593 21.8064C119.814 21.8064 119.997 21.8726 120.122 22.0123C120.247 22.1521 120.321 22.3359 120.321 22.5713C120.321 22.6301 120.321 22.689 120.314 22.7699C120.306 22.8508 120.292 22.9537 120.277 23.0935L120.1 24.4247H119.38L119.563 23.0126C119.563 22.9905 119.571 22.9684 119.571 22.9243C119.578 22.8434 119.586 22.7993 119.586 22.7846C119.586 22.6595 119.556 22.5639 119.505 22.5051C119.453 22.4463 119.365 22.4095 119.255 22.4095C119.093 22.4095 118.968 22.4683 118.887 22.586C118.799 22.7037 118.74 22.9023 118.703 23.1744L118.541 24.432H117.813L117.997 23.0199C118.004 22.9684 118.012 22.9243 118.012 22.8802C118.012 22.8361 118.019 22.814 118.019 22.7919C118.019 22.6669 117.99 22.5713 117.938 22.5125C117.887 22.4536 117.806 22.4168 117.695 22.4168C117.534 22.4168 117.416 22.4757 117.328 22.5934C117.239 22.711 117.181 22.9023 117.151 23.1817L116.989 24.4394H116.276V24.432Z" fill="#0B489D" stroke="#0B489D" stroke-width="0.188791"/>
<path d="M123.278 24.432H122.549L122.594 24.1525C122.505 24.2776 122.402 24.3732 122.27 24.4394C122.138 24.5056 121.991 24.535 121.821 24.535C121.498 24.535 121.248 24.432 121.064 24.2187C120.88 24.0054 120.792 23.7112 120.792 23.3288C120.792 22.8875 120.909 22.5271 121.137 22.2403C121.365 21.9535 121.66 21.8137 122.013 21.8137C122.196 21.8137 122.351 21.8505 122.491 21.924C122.63 21.9976 122.741 22.1079 122.836 22.255L122.88 21.902H123.609L123.278 24.432ZM122.77 23.0199C122.77 22.8213 122.719 22.6669 122.616 22.5565C122.513 22.4462 122.366 22.3874 122.189 22.3874C121.983 22.3874 121.814 22.4683 121.696 22.6227C121.579 22.7772 121.512 22.9905 121.512 23.2626C121.512 23.4465 121.564 23.5936 121.674 23.7039C121.785 23.8142 121.932 23.8657 122.123 23.8657C122.314 23.8657 122.476 23.7848 122.594 23.6303C122.711 23.4759 122.77 23.2847 122.77 23.0199Z" fill="#0B489D" stroke="#0B489D" stroke-width="0.188791"/>
<path d="M123.962 24.4322L124.491 20.4238H125.212L124.881 22.9759L126.006 21.8948H126.926L125.66 23.0201L126.639 24.4322H125.8L124.866 23.0495L124.69 24.4322H123.962Z" fill="#0B489D" stroke="#0B489D" stroke-width="0.188791"/>
<path d="M127.624 23.329V23.3878C127.624 23.557 127.676 23.6894 127.786 23.7923C127.896 23.8953 128.043 23.9394 128.227 23.9394C128.36 23.9394 128.47 23.91 128.573 23.8585C128.676 23.807 128.772 23.7114 128.867 23.5864L129.36 23.9983C129.235 24.1821 129.073 24.3145 128.882 24.4101C128.691 24.5057 128.455 24.5499 128.198 24.5499C127.808 24.5499 127.492 24.4322 127.256 24.2042C127.021 23.9762 126.903 23.6747 126.903 23.2922C126.903 22.8656 127.036 22.5126 127.308 22.2405C127.58 21.9684 127.918 21.8286 128.33 21.8286C128.713 21.8286 129.007 21.9463 129.228 22.1743C129.448 22.4023 129.551 22.7259 129.551 23.1304C129.551 23.1745 129.551 23.2407 129.544 23.329V23.3437H127.624V23.329ZM127.668 22.8951H128.86C128.86 22.7185 128.816 22.5862 128.72 22.4905C128.632 22.3949 128.507 22.3508 128.338 22.3508C128.161 22.3508 128.021 22.3949 127.904 22.4905C127.801 22.5788 127.72 22.7185 127.668 22.8951Z" fill="#0B489D" stroke="#0B489D" stroke-width="0.188791"/>
<path d="M133.64 22.7184C133.53 22.6301 133.427 22.5639 133.324 22.5198C133.221 22.4756 133.118 22.4536 133.015 22.4536C132.78 22.4536 132.589 22.5271 132.449 22.6816C132.302 22.836 132.236 23.0346 132.236 23.2847C132.236 23.4759 132.294 23.623 132.405 23.7333C132.515 23.8436 132.677 23.8951 132.875 23.8951C132.986 23.8951 133.096 23.8804 133.206 23.8436C133.317 23.8069 133.449 23.7554 133.589 23.6892L133.464 24.3879C133.361 24.4394 133.251 24.4761 133.133 24.4982C133.015 24.5203 132.898 24.535 132.765 24.535C132.375 24.535 132.059 24.4247 131.831 24.1967C131.603 23.9687 131.485 23.6671 131.485 23.2847C131.485 22.8581 131.625 22.5051 131.897 22.2256C132.169 21.9461 132.522 21.8137 132.942 21.8137C133.111 21.8137 133.265 21.8358 133.405 21.8799C133.552 21.924 133.684 21.9976 133.81 22.0858L133.64 22.7184Z" fill="#0B489D" stroke="#0B489D" stroke-width="0.188791"/>
<path d="M135.457 21.8137C135.854 21.8137 136.17 21.9314 136.413 22.1594C136.648 22.3874 136.766 22.6963 136.766 23.0861C136.766 23.5053 136.626 23.8583 136.347 24.1305C136.067 24.4026 135.707 24.5423 135.273 24.5423C134.883 24.5423 134.574 24.432 134.339 24.204C134.104 23.976 133.993 23.6745 133.993 23.2994C133.993 22.8654 134.133 22.5124 134.405 22.2403C134.677 21.9461 135.03 21.8137 135.457 21.8137ZM135.464 22.4756C135.244 22.4756 135.075 22.5492 134.942 22.6963C134.81 22.8434 134.744 23.0346 134.744 23.2773C134.744 23.4612 134.795 23.6009 134.891 23.7039C134.986 23.8069 135.126 23.8583 135.295 23.8583C135.508 23.8583 135.685 23.7848 135.817 23.6377C135.95 23.4906 136.016 23.3067 136.016 23.0714C136.016 22.8802 135.964 22.7331 135.869 22.6301C135.781 22.5345 135.641 22.483 135.464 22.4756Z" fill="#0B489D" stroke="#0B489D" stroke-width="0.188791"/>
<path d="M137.127 24.432L137.457 21.8947H138.134L138.075 22.2918C138.23 22.1227 138.384 22.005 138.539 21.9241C138.693 21.8432 138.848 21.8064 139.017 21.8064C139.289 21.8064 139.502 21.8726 139.657 22.005C139.811 22.1374 139.885 22.3286 139.885 22.5639C139.885 22.6595 139.87 22.814 139.84 23.0273C139.84 23.0567 139.833 23.0714 139.833 23.0861L139.657 24.4247H138.928L139.112 23.0126C139.12 22.9611 139.12 22.917 139.127 22.8802C139.134 22.8434 139.134 22.814 139.134 22.7919C139.134 22.6743 139.098 22.5786 139.031 22.5125C138.965 22.4463 138.87 22.4168 138.745 22.4168C138.531 22.4168 138.362 22.4757 138.244 22.6007C138.127 22.7257 138.053 22.917 138.016 23.1817L137.855 24.4247H137.127V24.432Z" fill="#0B489D" stroke="#0B489D" stroke-width="0.188791"/>
<path d="M140.348 24.432L140.679 21.8947H141.355L141.297 22.2918C141.451 22.1227 141.606 22.005 141.76 21.9241C141.914 21.8432 142.069 21.8064 142.238 21.8064C142.51 21.8064 142.723 21.8726 142.878 22.005C143.032 22.1374 143.106 22.3286 143.106 22.5639C143.106 22.6595 143.091 22.814 143.062 23.0273C143.062 23.0567 143.054 23.0714 143.054 23.0861L142.878 24.4247H142.15L142.334 23.0126C142.341 22.9611 142.341 22.917 142.348 22.8802C142.356 22.8434 142.356 22.814 142.356 22.7919C142.356 22.6743 142.319 22.5786 142.253 22.5125C142.187 22.4463 142.091 22.4168 141.966 22.4168C141.753 22.4168 141.583 22.4757 141.466 22.6007C141.348 22.7257 141.275 22.917 141.238 23.1817L141.076 24.4247H140.348V24.432Z" fill="#0B489D" stroke="#0B489D" stroke-width="0.188791"/>
<path d="M144.29 23.329V23.3878C144.29 23.557 144.342 23.6894 144.452 23.7923C144.562 23.8953 144.709 23.9394 144.893 23.9394C145.026 23.9394 145.136 23.91 145.239 23.8585C145.342 23.807 145.437 23.7114 145.533 23.5864L146.026 23.9983C145.901 24.1821 145.739 24.3145 145.548 24.4101C145.356 24.5057 145.121 24.5499 144.864 24.5499C144.474 24.5499 144.158 24.4322 143.922 24.2042C143.687 23.9762 143.569 23.6747 143.569 23.2922C143.569 22.8656 143.702 22.5126 143.974 22.2405C144.246 21.9684 144.584 21.8286 144.996 21.8286C145.379 21.8286 145.673 21.9463 145.893 22.1743C146.114 22.4023 146.217 22.7259 146.217 23.1304C146.217 23.1745 146.217 23.2407 146.21 23.329V23.3437H144.29V23.329ZM144.327 22.8951H145.518C145.518 22.7185 145.474 22.5862 145.379 22.4905C145.29 22.3949 145.165 22.3508 144.996 22.3508C144.82 22.3508 144.68 22.3949 144.562 22.4905C144.459 22.5788 144.378 22.7185 144.327 22.8951Z" fill="#0B489D" stroke="#0B489D" stroke-width="0.188791"/>
<path d="M148.732 22.7184C148.622 22.6301 148.519 22.5639 148.416 22.5198C148.313 22.4756 148.21 22.4536 148.107 22.4536C147.872 22.4536 147.681 22.5271 147.541 22.6816C147.394 22.836 147.328 23.0346 147.328 23.2847C147.328 23.4759 147.386 23.623 147.497 23.7333C147.607 23.8436 147.769 23.8951 147.967 23.8951C148.078 23.8951 148.188 23.8804 148.298 23.8436C148.409 23.8069 148.541 23.7554 148.681 23.6892L148.556 24.3879C148.453 24.4394 148.343 24.4761 148.225 24.4982C148.107 24.5203 147.99 24.535 147.857 24.535C147.467 24.535 147.151 24.4247 146.923 24.1967C146.695 23.9687 146.577 23.6671 146.577 23.2847C146.577 22.8581 146.717 22.5051 146.989 22.2256C147.261 21.9461 147.614 21.8137 148.034 21.8137C148.203 21.8137 148.357 21.8358 148.497 21.8799C148.644 21.924 148.776 21.9976 148.901 22.0858L148.732 22.7184Z" fill="#0B489D" stroke="#0B489D" stroke-width="0.188791"/>
<path d="M149.232 24.432L149.497 22.4756H149.012L149.085 21.9019H149.563L149.674 21.0562H150.409L150.292 21.9019H150.784L150.711 22.4756H150.218L149.961 24.432H149.232Z" fill="#0B489D" stroke="#0B489D" stroke-width="0.188791"/>
<path d="M150.909 24.4321L151.24 21.8947H151.968L151.637 24.4321H150.909ZM151.299 20.9166C151.299 20.7989 151.343 20.6959 151.424 20.615C151.505 20.5341 151.608 20.49 151.726 20.49C151.843 20.49 151.946 20.5341 152.027 20.615C152.108 20.6959 152.152 20.7989 152.152 20.9166C152.152 21.0342 152.108 21.1372 152.027 21.2181C151.946 21.299 151.843 21.3431 151.726 21.3431C151.608 21.3431 151.505 21.299 151.424 21.2181C151.343 21.1372 151.299 21.0342 151.299 20.9166Z" fill="#0B489D" stroke="#0B489D" stroke-width="0.188791"/>
<path d="M153.814 21.8137C154.212 21.8137 154.528 21.9314 154.771 22.1594C155.006 22.3874 155.124 22.6963 155.124 23.0861C155.124 23.5053 154.984 23.8583 154.704 24.1305C154.425 24.4026 154.064 24.5423 153.631 24.5423C153.241 24.5423 152.932 24.432 152.697 24.204C152.461 23.976 152.351 23.6745 152.351 23.2994C152.351 22.8654 152.491 22.5124 152.763 22.2403C153.035 21.9461 153.388 21.8137 153.814 21.8137ZM153.822 22.4756C153.601 22.4756 153.432 22.5492 153.3 22.6963C153.167 22.8434 153.101 23.0346 153.101 23.2773C153.101 23.4612 153.153 23.6009 153.248 23.7039C153.344 23.8069 153.483 23.8583 153.653 23.8583C153.866 23.8583 154.042 23.7848 154.175 23.6377C154.307 23.4906 154.373 23.3067 154.373 23.0714C154.373 22.8802 154.322 22.7331 154.226 22.6301C154.131 22.5345 153.998 22.483 153.822 22.4756Z" fill="#0B489D" stroke="#0B489D" stroke-width="0.188791"/>
<path d="M155.484 24.432L155.815 21.8947H156.492L156.433 22.2918C156.587 22.1227 156.742 22.005 156.896 21.9241C157.051 21.8432 157.205 21.8064 157.374 21.8064C157.646 21.8064 157.86 21.8726 158.014 22.005C158.168 22.1374 158.242 22.3286 158.242 22.5639C158.242 22.6595 158.227 22.814 158.198 23.0273C158.198 23.0567 158.19 23.0714 158.19 23.0861L158.014 24.4247H157.286L157.47 23.0126C157.477 22.9611 157.477 22.917 157.484 22.8802C157.492 22.8434 157.492 22.814 157.492 22.7919C157.492 22.6743 157.455 22.5786 157.389 22.5125C157.323 22.4463 157.227 22.4168 157.102 22.4168C156.889 22.4168 156.72 22.4757 156.602 22.6007C156.484 22.7257 156.411 22.917 156.374 23.1817L156.212 24.4247H155.484V24.432Z" fill="#0B489D" stroke="#0B489D" stroke-width="0.188791"/>
<path d="M158.97 23.6157C159.058 23.7407 159.154 23.8363 159.264 23.9025C159.375 23.9687 159.478 24.0055 159.581 24.0055C159.669 24.0055 159.735 23.9834 159.786 23.9393C159.838 23.8951 159.867 23.8363 159.867 23.7701C159.867 23.6671 159.772 23.5568 159.573 23.4465C159.492 23.4024 159.433 23.3656 159.389 23.3362C159.205 23.2185 159.08 23.1082 159.014 22.9979C158.948 22.8875 158.911 22.7699 158.911 22.6228C158.911 22.3874 159.007 22.1888 159.191 22.0344C159.375 21.8799 159.61 21.8064 159.904 21.8064C160.081 21.8064 160.25 21.8432 160.404 21.9094C160.559 21.9756 160.706 22.0859 160.831 22.2183L160.397 22.6081C160.301 22.5051 160.213 22.4316 160.125 22.3801C160.037 22.3286 159.948 22.3065 159.86 22.3065C159.779 22.3065 159.713 22.3286 159.669 22.3654C159.625 22.4021 159.595 22.461 159.595 22.5272C159.595 22.6228 159.728 22.7404 159.992 22.8875C160.066 22.9317 160.125 22.9611 160.169 22.9905C160.309 23.0714 160.412 23.1597 160.478 23.27C160.544 23.3803 160.581 23.5053 160.581 23.6451C160.581 23.9025 160.493 24.1158 160.309 24.2776C160.125 24.4394 159.889 24.5203 159.595 24.5203C159.397 24.5203 159.213 24.4835 159.044 24.4026C158.874 24.3217 158.713 24.204 158.558 24.0349L158.97 23.6157Z" fill="#0B489D" stroke="#0B489D" stroke-width="0.188791"/>
</g>
<defs>
<clipPath id="clip0_23_3">
<rect width="196" height="40" fill="white"/>
</clipPath>
</defs>
</svg>
