<svg width="196" height="40" viewBox="0 0 196 40" fill="none" xmlns="http://www.w3.org/2000/svg">
<g clip-path="url(#clip0_23_3)">
<path d="M196 0H0V40H196V0Z" fill="white"/>
<path d="M85.0648 37.5487V37.1905H85.9807V38.0376C85.8916 38.1246 85.7627 38.2012 85.5938 38.2674C85.4249 38.3337 85.2538 38.3668 85.0806 38.3668C84.8605 38.3668 84.6686 38.3201 84.505 38.2267C84.3413 38.1335 84.2183 38.0001 84.1361 37.8265C84.0538 37.653 84.0126 37.4642 84.0126 37.2602C84.0126 37.0387 84.0586 36.8419 84.1505 36.6698C84.2423 36.4977 84.3768 36.3658 84.5537 36.2739C84.6888 36.2033 84.8567 36.168 85.0576 36.168C85.319 36.168 85.5231 36.2234 85.67 36.3341C85.8168 36.4447 85.9113 36.5978 85.9534 36.7931L85.5314 36.8728C85.5016 36.7685 85.446 36.6859 85.3642 36.6256C85.2823 36.5652 85.1802 36.5349 85.0576 36.5349C84.872 36.5349 84.7244 36.5944 84.6148 36.7133C84.5053 36.8322 84.4504 37.0087 84.4504 37.2427C84.4504 37.4951 84.5059 37.6843 84.617 37.8106C84.728 37.9367 84.8735 37.9998 85.0533 37.9998C85.1424 37.9998 85.2316 37.9822 85.3211 37.9469C85.4105 37.9116 85.4873 37.8687 85.5515 37.8185V37.5487H85.0648Z" fill="black"/>
<path d="M86.3584 38.3306V36.2043H87.9188V36.564H86.7832V37.0354H87.8398V37.3937H86.7832V37.9724H87.9589V38.3306H86.3584Z" fill="black"/>
<path d="M88.3092 38.3306V36.2043H88.7226L89.584 37.6242V36.2043H89.9787V38.3306H89.5525L88.7041 36.9441V38.3306H88.3092Z" fill="black"/>
<path d="M90.4139 38.3306V36.2043H91.9742V36.564H90.8387V37.0354H91.8953V37.3937H90.8387V37.9724H92.0143V38.3306H90.4139Z" fill="black"/>
<path d="M92.7869 37.1036H93.1013C93.3052 37.1036 93.4325 37.0949 93.4831 37.0775C93.5339 37.0601 93.5735 37.0301 93.6023 36.9876C93.631 36.945 93.6453 36.8919 93.6453 36.8281C93.6453 36.7565 93.6265 36.6987 93.5887 36.6547C93.5508 36.6107 93.4975 36.5829 93.4286 36.5712C93.3941 36.5665 93.2908 36.564 93.1185 36.564H92.7869V37.1036ZM92.362 38.3306V36.2043H93.2563C93.4812 36.2043 93.6446 36.2235 93.7466 36.2616C93.8485 36.2998 93.9301 36.3678 93.9913 36.4654C94.0525 36.5631 94.0832 36.6748 94.0832 36.8005C94.0832 36.96 94.0368 37.0917 93.9439 37.1957C93.8512 37.2997 93.7123 37.3651 93.5276 37.3922C93.6195 37.4464 93.6953 37.5059 93.7551 37.5706C93.815 37.6354 93.8955 37.7505 93.997 37.9158L94.254 38.3306H93.7458L93.4387 37.8679C93.3295 37.7026 93.2549 37.5983 93.2147 37.5554C93.1745 37.5123 93.132 37.4829 93.087 37.4669C93.0419 37.451 92.9707 37.4429 92.873 37.4429H92.7869V38.3306H92.362Z" fill="black"/>
<path d="M95.5847 37.4894L95.2948 36.7004L95.0105 37.4894H95.5847ZM96.3671 38.3305H95.9048L95.721 37.8476H94.8799L94.7062 38.3305H94.2555L95.0752 36.2043H95.5245L96.3671 38.3305Z" fill="black"/>
<path d="M96.8338 38.3306V36.564H96.2092V36.2043H97.8816V36.564H97.2587V38.3306H96.8338Z" fill="black"/>
<path d="M98.5536 36.2043H98.1287V38.3306H98.5536V36.2043Z" fill="black"/>
<path d="M99.2958 37.2659C99.2958 37.5067 99.3508 37.6892 99.4609 37.8135C99.5709 37.9377 99.7106 37.9998 99.88 37.9998C100.049 37.9998 100.188 37.9381 100.297 37.8148C100.406 37.6915 100.46 37.5067 100.46 37.2602C100.46 37.0165 100.407 36.8347 100.301 36.7148C100.196 36.5948 100.055 36.5349 99.88 36.5349C99.7049 36.5349 99.5637 36.5956 99.4565 36.717C99.3493 36.8384 99.2958 37.0213 99.2958 37.2659ZM98.8579 37.2804C98.8579 37.0638 98.89 36.882 98.9542 36.7351C99.002 36.6268 99.0673 36.5296 99.1501 36.4435C99.2329 36.3575 99.3236 36.2937 99.4222 36.2521C99.5533 36.196 99.7044 36.168 99.8757 36.168C100.186 36.168 100.434 36.2651 100.62 36.4595C100.806 36.6538 100.899 36.9241 100.899 37.2703C100.899 37.6136 100.807 37.8821 100.622 38.076C100.437 38.2699 100.191 38.3667 99.8815 38.3667C99.5686 38.3667 99.3197 38.2703 99.135 38.0773C98.9502 37.8844 98.8579 37.6189 98.8579 37.2804Z" fill="black"/>
<path d="M101.221 38.3306V36.2043H101.634L102.496 37.6242V36.2043H102.89V38.3306H102.464L101.616 36.9441V38.3306H101.221Z" fill="black"/>
<path d="M103.674 37.9229H103.271V38.3304H103.674V37.9229Z" fill="#EA090E"/>
<path d="M104.029 38.3306V36.2043H104.442L105.304 37.6242V36.2043H105.698V38.3306H105.272L104.424 36.9441V38.3306H104.029Z" fill="#EA090E"/>
<path d="M106.134 38.3306V36.2043H107.694V36.564H106.558V37.0354H107.615V37.3937H106.558V37.9724H107.734V38.3306H106.134Z" fill="#EA090E"/>
<path d="M107.866 38.3306L108.585 37.2211L107.934 36.2043H108.43L108.852 36.8875L109.266 36.2043H109.758L109.104 37.237L109.823 38.3306H109.31L108.844 37.5952L108.376 38.3306H107.866Z" fill="#EA090E"/>
<path d="M110.501 38.3306V36.564H109.876V36.2043H111.548V36.564H110.926V38.3306H110.501Z" fill="#EA090E"/>
<path d="M95.4312 5.72238L94.3423 4.65991C94.1624 4.48444 93.8758 4.48949 93.7021 4.67119L87.2669 11.404C87.0933 11.5857 87.0983 11.8753 87.2781 12.0508L93.8449 18.458C94.0248 18.6334 94.3114 18.6284 94.485 18.4467L100.92 11.7138C101.094 11.5321 101.089 11.2425 100.909 11.0671L98.4201 8.63865L100.073 6.90887L103.207 9.96584C103.976 10.7167 103.998 11.9559 103.254 12.7335L95.575 20.768C94.8318 21.5456 93.6054 21.5672 92.8358 20.8163L84.9805 13.152C84.2109 12.4011 84.1895 11.162 84.9327 10.3844L92.6122 2.34981C93.3553 1.57226 94.5818 1.55062 95.3514 2.30153L97.0846 3.99257L95.4312 5.72238Z" fill="black"/>
<path d="M100.13 17.242L101.219 18.3045C101.399 18.4799 101.685 18.4749 101.859 18.2932L108.294 11.5605C108.468 11.3788 108.463 11.0892 108.283 10.9137L101.716 4.50657C101.536 4.33111 101.25 4.33616 101.076 4.51786L94.641 11.2505C94.4673 11.4322 94.4723 11.7218 94.6521 11.8973L97.141 14.3257L95.4877 16.0555L92.3545 12.9985C91.585 12.2476 91.5635 11.0085 92.3068 10.2309L99.986 2.19648C100.729 1.41897 101.956 1.39728 102.725 2.14819L110.58 9.81254C111.35 10.5634 111.372 11.8026 110.628 12.5801L102.949 20.6147C102.206 21.3922 100.979 21.4139 100.21 20.663L98.4765 18.972L100.13 17.242Z" fill="#EA090E"/>
<path d="M119.565 31.1935C119.565 31.7819 119.152 32.0733 118.328 32.0733C117.507 32.0733 117.094 31.7819 117.094 31.1935V28.9127C117.094 28.3243 117.507 28.0272 118.328 28.0272C119.152 28.0272 119.565 28.3243 119.565 28.9127V31.1935ZM119.965 27.7639C119.615 27.464 119.069 27.3127 118.323 27.3127C117.58 27.3127 117.036 27.4613 116.689 27.761C116.343 28.0609 116.171 28.4728 116.171 28.9911V31.115C116.171 31.6362 116.343 32.0453 116.689 32.3423C117.036 32.6393 117.58 32.7906 118.323 32.7906C119.069 32.7906 119.615 32.6393 119.965 32.3395C120.314 32.0397 120.489 31.6306 120.489 31.115V28.9911C120.489 28.4755 120.314 28.0665 119.965 27.7639Z" fill="black"/>
<path d="M113.65 31.3672C113.323 31.6334 112.923 31.7651 112.454 31.7651C111.659 31.7651 111.259 31.4905 111.259 30.9413V28.9631C111.259 28.3411 111.659 28.0272 112.454 28.0272C113.253 28.0272 113.65 28.271 113.65 28.753V31.3672ZM113.65 27.4108V27.8339C113.575 27.7078 113.397 27.5901 113.123 27.4781C112.846 27.3688 112.574 27.3127 112.313 27.3127C111.653 27.3127 111.159 27.4669 110.829 27.7778C110.499 28.0861 110.336 28.5148 110.336 29.0612V30.7956C110.336 31.9192 110.996 32.4824 112.313 32.4824C112.535 32.4824 112.782 32.4516 113.048 32.3872C113.314 32.3255 113.517 32.2302 113.65 32.1041V32.8355C113.65 33.2306 113.553 33.5247 113.353 33.7153C113.153 33.903 112.807 33.9983 112.313 33.9983C111.817 33.9983 111.398 33.9339 111.057 33.8078L110.852 34.5082C111.207 34.6427 111.75 34.7072 112.485 34.7072C113.22 34.7072 113.752 34.5082 114.082 34.1076C114.41 33.7069 114.576 33.1886 114.576 32.5553V27.4108H113.65Z" fill="black"/>
<path d="M107.816 32.6804V28.799C107.816 28.2853 107.428 28.0284 106.651 28.0284C106.266 28.0284 105.965 28.1112 105.745 28.2768C105.525 28.4423 105.415 28.6591 105.415 28.9273V32.6804H104.491V27.4115H105.415V27.9235C105.763 27.5163 106.278 27.3127 106.96 27.3127C107.846 27.3127 108.407 27.6273 108.642 28.2564C108.708 28.4355 108.741 28.6344 108.741 28.8529V32.6804H107.816Z" fill="#EA090E"/>
<path d="M102.582 25.4927H101.657V26.4627H102.582V25.4927Z" fill="#EA090E"/>
<path d="M102.582 27.4114H101.657V32.6803H102.582V27.4114Z" fill="#EA090E"/>
<path d="M98.9903 31.0702C98.9903 31.3896 98.8794 31.6362 98.6547 31.8099C98.4301 31.9865 98.1112 32.0733 97.7035 32.0733C97.2931 32.0733 96.9215 31.978 96.5887 31.7903V28.5848C96.658 28.4784 96.805 28.3579 97.0296 28.2261C97.2542 28.0945 97.5288 28.0272 97.8477 28.0272C98.1667 28.0272 98.4385 28.1113 98.6576 28.2766C98.8794 28.4419 98.9903 28.6773 98.9903 28.9827V31.0702ZM99.4119 27.7891C99.0763 27.4724 98.5855 27.3127 97.9392 27.3127C97.6564 27.3127 97.3846 27.3604 97.1212 27.4584C96.8605 27.5565 96.6525 27.6742 96.4999 27.8087L96.3945 27.4108H95.6652V34.7072H96.5887V32.5104C96.9492 32.6953 97.3597 32.7906 97.82 32.7906C98.4828 32.7906 98.9959 32.6225 99.3647 32.2863C99.7308 31.9528 99.9166 31.5129 99.9166 30.9693V29.0556C99.9166 28.5288 99.7474 28.1085 99.4119 27.7891Z" fill="#EA090E"/>
<path d="M89.7519 32.6804V28.799C89.7519 28.2853 89.3765 28.0284 88.6255 28.0284C88.2454 28.0284 87.9525 28.1101 87.747 28.2737C87.5421 28.4379 87.4397 28.6558 87.4397 28.9273V32.6804H86.5148V27.4115H87.4397V27.9235C87.7876 27.5163 88.3099 27.3127 89.0064 27.3127C89.7036 27.3127 90.1899 27.5428 90.4653 28.0029L90.5882 27.8838C90.9656 27.5032 91.4936 27.3127 92.172 27.3127C93.0478 27.3127 93.5892 27.6273 93.7961 28.2564C93.8552 28.4355 93.8847 28.6344 93.8847 28.8529V32.6804H92.9598V28.799C92.9598 28.2853 92.6186 28.0284 91.9362 28.0284C91.5063 28.0284 91.189 28.1101 90.9841 28.2737C90.7793 28.4379 90.6768 28.6558 90.6768 28.9273V32.6804H89.7519Z" fill="#EA090E"/>
<path d="M83.9481 31.1935C83.9481 31.7819 83.5349 32.0733 82.7112 32.0733C81.8903 32.0733 81.4771 31.7819 81.4771 31.1935V28.9127C81.4771 28.3243 81.8903 28.0272 82.7112 28.0272C83.5349 28.0272 83.9481 28.3243 83.9481 28.9127V31.1935ZM84.3474 27.7639C83.998 27.464 83.4517 27.3127 82.7057 27.3127C81.9624 27.3127 81.4189 27.4613 81.0722 27.761C80.7255 28.0609 80.5536 28.4728 80.5536 28.9911V31.115C80.5536 31.6362 80.7255 32.0453 81.0722 32.3423C81.4189 32.6393 81.9624 32.7906 82.7057 32.7906C83.4517 32.7906 83.998 32.6393 84.3474 32.3395C84.6969 32.0397 84.8716 31.6306 84.8716 31.115V28.9911C84.8716 28.4755 84.6969 28.0665 84.3474 27.7639Z" fill="#EA090E"/>
<path d="M75.997 32.6803H75.0721V25.1943H75.997V30.0753L78.4915 27.4114H79.5051L77.3843 29.7282L79.7167 32.6803H78.6488L76.7798 30.2352L75.997 31.02V32.6803Z" fill="#EA090E"/>
</g>
<defs>
<clipPath id="clip0_23_3">
<rect width="196" height="40" fill="white"/>
</clipPath>
</defs>
</svg>
